<svg width="248" height="169" viewBox="0 0 248 169" fill="none" xmlns="http://www.w3.org/2000/svg">
<g clip-path="url(#clip0_201_3457)">
<path d="M242.811 104.071C246.451 114.648 243.43 125.148 236.692 130.012C229.799 135.03 218.646 134.49 209.661 126.692C196.727 115.497 193.319 94.6523 207.648 86.0054C221.202 77.899 237.699 89.1708 242.811 104.071Z" fill="#E2E2E2"/>
<path d="M219.188 78.9798C219.188 78.8254 218.801 78.671 217.871 78.3622C216.942 78.1306 215.625 77.899 213.844 77.8218C212.062 77.8218 209.816 77.9762 207.338 78.7482C204.859 79.5975 202.226 80.9871 199.825 83.3033C197.347 85.5422 195.41 88.862 194.403 92.645C193.397 96.428 193.397 100.674 194.249 104.998C195.1 109.321 196.804 113.645 199.205 117.659C201.684 121.751 204.937 125.611 209.119 128.699L209.739 129.163L210.436 129.549C210.901 129.857 211.288 130.089 211.753 130.398C212.682 130.861 213.534 131.401 214.541 131.788C216.4 132.637 218.413 133.254 220.427 133.718C225.539 134.798 230.883 134.412 235.375 132.328C237.621 131.324 239.713 129.935 241.339 128.236C243.043 126.538 244.36 124.685 245.367 122.677C246.373 120.67 247.07 118.586 247.458 116.578C247.845 114.494 248.077 112.486 247.922 110.556C247.845 108.626 247.613 106.773 247.148 104.998C246.761 103.222 246.141 101.678 245.521 100.134C244.205 97.2 242.656 94.7295 241.107 92.7222C239.558 90.7149 238.009 89.1708 236.692 88.0127C234.059 85.6966 232.277 84.7702 232.2 84.9246C232.045 85.1562 233.516 86.3142 235.84 88.862C237.002 90.0972 238.318 91.7185 239.713 93.7258C241.107 95.7332 242.423 98.1265 243.508 100.983C244.05 102.373 244.592 103.917 244.902 105.538C245.289 107.159 245.444 108.858 245.521 110.634C245.599 112.409 245.367 114.185 244.979 116.038C244.592 117.891 243.972 119.666 243.043 121.442C241.184 124.916 238.241 128.082 234.291 129.703C230.341 131.401 225.616 131.788 221.124 130.784C219.265 130.398 217.484 129.857 215.858 129.085C215.006 128.777 214.231 128.236 213.379 127.85L212.217 127.078L211.598 126.692L211.056 126.306C207.26 123.527 204.162 119.975 201.839 116.192C199.515 112.409 197.889 108.395 197.037 104.457C196.185 100.52 196.185 96.6596 196.959 93.2626C197.347 91.5641 197.966 90.02 198.741 88.5532C199.128 87.8583 199.593 87.1635 199.98 86.5458C200.445 85.9282 200.909 85.3106 201.452 84.8474C203.465 82.7628 205.866 81.296 208.035 80.3695C210.204 79.5203 212.295 79.1342 213.999 79.057C215.703 78.9026 217.019 78.9798 217.949 79.057C218.646 79.1342 219.188 79.1342 219.188 78.9798Z" fill="#231B1B"/>
<path d="M220.582 96.042C219.653 96.4281 220.892 100.288 222.441 105.307C222.518 105.538 222.596 105.77 222.673 106.079C222.751 106.31 222.828 106.542 222.906 106.851C224.532 111.792 225.539 115.652 226.546 115.497C227.475 115.343 227.32 111.174 225.771 106.001C225.694 105.77 225.616 105.461 225.539 105.229C225.462 104.998 225.384 104.689 225.307 104.457C223.525 99.2846 221.434 95.656 220.582 96.042Z" fill="#231B1B"/>
<path d="M233.981 105.152C233.826 104.148 229.489 104.38 223.99 105.075C223.68 105.152 223.448 105.152 223.138 105.229C222.828 105.229 222.596 105.306 222.286 105.306C216.709 106.156 212.527 107.159 212.682 108.163C212.837 109.089 217.174 108.935 222.673 108.24C222.983 108.163 223.215 108.163 223.525 108.086C223.835 108.086 224.067 108.008 224.377 108.008C229.876 107.159 234.059 106.078 233.981 105.152Z" fill="#231B1B"/>
<path d="M95.1106 37.7529H107.116L111.685 48.0983H99.4479L95.1106 37.7529Z" fill="#E2E2E2"/>
<path d="M105.412 58.5979H117.107L121.522 68.4028H109.671L105.412 58.5979Z" fill="#E2E2E2"/>
<path d="M92.0124 35.8228C91.7026 35.9772 91.935 37.2897 92.6321 39.5286C93.0193 40.6094 93.484 41.9991 94.0262 43.5432C94.336 44.3152 94.6458 45.0873 94.9556 45.9365C95.3429 46.863 95.4978 47.3262 96.3497 49.4107C98.4409 49.4107 100.687 49.4879 103.011 49.4879C105.102 49.4879 107.27 49.4879 109.516 49.5651C110.988 49.5651 112.382 49.5651 113.854 49.5651H114.009L112.305 45.7821C111.453 43.852 110.601 41.9991 109.749 40.1462C108.819 38.1389 107.967 36.2088 107.116 34.4331C106.264 34.4331 105.489 34.4331 104.637 34.5103C104.095 34.5103 103.63 34.5103 103.165 34.5875C102.159 34.5875 101.229 34.6647 100.377 34.6647C98.6733 34.7419 97.1243 34.8191 95.885 34.9735C93.4066 35.2051 92.0124 35.4368 92.0124 35.8228C92.0124 36.1316 93.4066 36.4404 95.9625 36.672C97.2017 36.7492 98.7507 36.9036 100.455 36.9808C101.307 36.9808 102.236 37.058 103.243 37.058C103.708 37.058 104.25 37.058 104.715 37.1353H105.102H105.334H105.412V37.2125L105.566 37.5213C105.721 37.9073 105.876 38.3705 106.109 38.7565C106.496 39.6058 106.806 40.455 107.193 41.3043C107.89 43.0028 108.665 44.7785 109.439 46.5542C107.193 46.5542 105.102 46.6314 103.011 46.6314C102.004 46.6314 100.997 46.6314 99.99 46.7086C99.5253 46.7086 99.0605 46.7086 98.5958 46.7086H98.2086C98.1311 46.7086 98.1311 46.7086 98.1311 46.7086H98.0537C98.1311 46.9402 97.5115 45.6277 97.2017 44.8557C96.8144 44.0064 96.4272 43.2344 96.1174 42.5395C95.4203 41.0727 94.8007 39.8374 94.2585 38.7565C93.0193 36.8264 92.3223 35.7456 92.0124 35.8228Z" fill="#231B1B"/>
<path d="M101.849 56.1275C101.539 56.2819 101.771 57.5943 102.468 59.8333C102.856 60.9141 103.32 62.3038 103.863 63.8479C104.172 64.6199 104.482 65.392 104.792 66.2412C105.179 67.1677 105.334 67.6309 106.186 69.7154C108.277 69.7154 110.523 69.7926 112.847 69.7926C114.938 69.7926 117.107 69.7926 119.353 69.8698C120.825 69.8698 122.219 69.8698 123.69 69.8698H123.845L122.141 66.0868C121.289 64.1567 120.437 62.3038 119.585 60.4509C118.656 58.4436 117.804 56.5135 116.952 54.7378C116.1 54.7378 115.325 54.7378 114.473 54.815C113.931 54.815 113.467 54.815 113.002 54.8922C111.995 54.8922 111.066 54.9694 110.214 54.9694C108.51 55.0466 106.961 55.1238 105.721 55.2782C103.243 55.4326 101.849 55.7414 101.849 56.1275C101.849 56.4363 103.243 56.7451 105.799 56.9767C107.038 57.0539 108.587 57.2083 110.291 57.2855C111.143 57.2855 112.072 57.3627 113.079 57.3627C113.544 57.3627 114.086 57.3627 114.551 57.4399H114.938H115.171H115.248V57.5171L115.403 57.826C115.558 58.212 115.713 58.6752 115.945 59.0612C116.332 59.9105 116.642 60.7597 117.029 61.609C117.726 63.3075 118.501 65.0832 119.275 66.8589C117.029 66.8589 114.938 66.9361 112.847 66.9361C111.84 66.9361 110.833 66.9361 109.826 67.0133C109.362 67.0133 108.897 67.0133 108.432 67.0133H108.045C107.968 67.0133 107.968 67.0133 107.968 67.0133H107.89C107.968 67.2449 107.348 65.9324 107.038 65.1604C106.651 64.3111 106.264 63.5391 105.954 62.8442C105.257 61.3774 104.637 60.1421 104.095 59.0612C102.933 57.1311 102.159 55.9731 101.849 56.1275Z" fill="#231B1B"/>
<path d="M132.287 37.5213C132.287 36.5177 128.802 36.1316 124.155 36.0544C123.922 36.0544 123.69 36.0544 123.458 36.0544C123.225 36.0544 122.993 36.0544 122.761 36.0544C118.191 36.1316 114.628 36.5177 114.628 37.5213C114.628 38.4478 118.114 38.911 122.761 38.9882C122.993 38.9882 123.225 38.9882 123.458 38.9882C123.69 38.9882 123.922 38.9882 124.155 38.9882C128.724 38.911 132.287 38.4478 132.287 37.5213Z" fill="#231B1B"/>
<path d="M173.956 39.9146C173.956 39.683 173.259 39.3742 172.02 39.0654C170.703 38.7566 168.767 38.525 166.366 38.3705C161.564 38.1389 154.826 38.6794 147.39 39.7602C146.616 39.8374 145.919 39.9918 145.144 40.069C144.447 40.1462 143.673 40.3007 142.898 40.3779C135.54 41.5359 129.034 42.3852 124.31 42.694C121.986 42.8484 120.127 43.0028 118.811 43.08C117.494 43.1572 116.797 43.3888 116.719 43.6204C116.719 43.852 117.417 44.0837 118.733 44.3153C120.05 44.6241 121.986 44.7785 124.387 44.8557C129.189 45.0101 135.927 44.3925 143.363 43.3116C144.137 43.2344 144.834 43.08 145.609 43.0028C146.306 42.9256 147.081 42.7712 147.855 42.694C155.213 41.5359 161.719 40.7639 166.443 40.5323C168.767 40.4551 170.703 40.3007 171.942 40.3007C173.182 40.3007 173.956 40.1462 173.956 39.9146Z" fill="#231B1B"/>
<path d="M132.752 55.587C132.52 54.5833 130.274 54.8149 127.408 55.0465C127.253 55.0465 127.098 55.0465 127.021 55.1237C126.866 55.1237 126.711 55.1237 126.633 55.1237C123.845 55.4326 121.599 55.6642 121.522 56.6678C121.444 57.5943 123.768 58.2891 126.866 58.1347C127.021 58.1347 127.176 58.1347 127.33 58.0575C127.485 58.0575 127.64 58.0575 127.795 57.9803C130.893 57.5943 133.062 56.4362 132.752 55.587Z" fill="#231B1B"/>
<path d="M181.546 58.3664C181.624 57.9032 178.913 56.8995 174.189 56.4363C171.865 56.2047 168.999 56.2047 165.824 56.3591C162.648 56.5907 159.163 56.9767 155.6 57.5943C154.903 57.7488 154.129 57.826 153.432 57.9804C152.734 58.1348 152.037 58.212 151.263 58.3664C147.7 59.0612 144.292 59.7561 141.272 60.3737C138.251 60.9913 135.54 61.4546 133.294 61.8406C128.802 62.5354 126.014 62.8442 126.014 63.3847C126.014 63.8479 128.879 64.2339 133.526 64.0023C135.85 63.8479 138.638 63.5391 141.736 63.0758C144.834 62.6126 148.242 61.995 151.805 61.3001C152.502 61.1457 153.199 61.0685 153.974 60.9141C154.671 60.7597 155.368 60.6825 156.142 60.5281C159.705 59.9105 163.036 59.37 166.134 59.0612C169.154 58.7524 171.865 58.598 174.189 58.598C178.603 58.5208 181.392 58.8296 181.546 58.3664Z" fill="#231B1B"/>
<path d="M148.785 138.504C148.862 138.041 145.996 137.423 142.279 137.964C142.124 137.964 141.891 138.041 141.736 138.041C141.582 138.041 141.349 138.118 141.194 138.118C137.477 138.89 135.076 140.512 135.308 140.898C135.54 141.361 138.019 140.203 141.504 139.585C141.659 139.585 141.814 139.508 142.046 139.508C142.201 139.508 142.356 139.431 142.588 139.431C145.996 138.813 148.785 138.967 148.785 138.504Z" fill="#393637"/>
<path d="M106.264 12.2754C106.341 11.735 104.715 11.1945 102.004 10.4997C99.293 9.80486 95.4978 8.80121 91.0056 8.18357C90.5409 8.10637 90.0762 8.10637 89.689 8.02916C89.2243 8.02916 88.7595 7.95196 88.2948 7.95196C86.0487 7.79755 83.8026 7.87476 81.8664 8.18357C79.9301 8.49239 78.2261 8.95561 76.832 9.49604C74.0437 10.6541 72.8045 11.9666 73.0369 12.3526C73.2692 12.7386 74.8183 12.121 77.4516 11.5806C78.7683 11.2717 80.3173 11.0401 82.0987 10.8857C83.8801 10.7313 85.8938 10.8085 87.985 10.9629C88.4497 10.9629 88.837 11.0401 89.2243 11.0401C89.6115 11.1173 90.0762 11.1173 90.4635 11.1945C94.7233 11.6578 98.5959 12.4298 101.384 12.6614C104.482 12.8158 106.186 12.6614 106.264 12.2754Z" fill="#393637"/>
<path d="M158.931 12.816C158.853 11.8123 150.721 12.1212 140.187 12.43C139.645 12.43 139.103 12.43 138.638 12.5072C138.096 12.5072 137.631 12.5072 137.089 12.5072C126.556 12.816 118.423 12.8932 118.423 13.9741C118.423 14.9005 126.556 15.6725 137.167 15.5181C137.709 15.5181 138.251 15.5181 138.716 15.4409C139.258 15.4409 139.8 15.4409 140.265 15.3637C150.876 14.9005 159.008 13.6652 158.931 12.816Z" fill="#393637"/>
<path d="M180.695 6.87129C180.307 5.94484 177.364 6.79408 173.647 7.72054C173.492 7.79774 173.259 7.79774 173.104 7.87494C172.949 7.95215 172.717 7.95215 172.562 8.02935C168.767 8.9558 165.824 9.57344 165.901 10.5771C165.979 11.5035 169.154 11.8124 173.259 10.8859C173.492 10.8087 173.647 10.8087 173.879 10.7315C174.111 10.6543 174.266 10.6543 174.499 10.5771C178.371 9.49623 181.082 7.64333 180.695 6.87129Z" fill="#393637"/>
<path d="M203.465 72.7264C204.395 72.3404 199.825 60.9142 194.868 45.7049C194.636 44.9329 194.326 44.1608 194.094 43.466C193.861 42.694 193.629 41.9219 193.397 41.2271C188.44 26.0179 185.342 14.1284 184.335 14.36C183.483 14.5144 185.652 26.7899 190.531 42.1535C190.763 42.9256 190.996 43.6976 191.306 44.4697C191.538 45.2417 191.77 46.0137 192.08 46.7858C197.269 61.9178 202.691 73.1124 203.465 72.7264Z" fill="#393637"/>
<path d="M218.026 138.736C218.026 138.504 215.083 138.659 209.894 138.968C204.627 139.199 197.037 139.354 187.51 139.431C182.786 139.431 177.519 139.508 171.865 139.508C169.077 139.508 166.134 139.585 163.113 139.585C160.092 139.585 156.994 139.662 153.741 139.74C150.488 139.894 147.158 140.203 143.828 140.821C142.124 141.129 140.42 141.515 138.716 142.056C137.864 142.287 137.012 142.596 136.16 142.905L134.921 143.445C134.688 143.523 134.533 143.6 134.301 143.677L133.759 143.909C133.759 143.909 133.759 143.909 133.681 143.909L133.372 143.523C132.829 142.905 132.21 142.21 131.668 141.515C130.506 140.126 129.344 138.813 128.26 137.424C126.014 134.644 123.845 131.633 121.754 128.622C120.05 126.152 118.423 123.681 116.874 121.211C116.1 119.975 115.325 118.74 114.551 117.428C113.776 116.192 113.002 114.88 112.305 113.567C104.947 100.674 99.0606 87.8584 93.9488 76.2006C88.837 64.5428 84.8095 53.9658 81.5565 45.0873C78.3036 36.1316 75.9026 28.9516 74.1986 23.9334C72.4947 18.9923 71.5653 16.2129 71.3329 16.2901C71.1006 16.3673 71.6427 19.1467 73.0368 24.2422C74.3535 29.3377 76.5222 36.672 79.5428 45.7049C82.5634 54.7378 86.5134 65.392 91.4703 77.2043C96.5047 88.9393 102.314 101.832 109.749 114.957C110.523 116.27 111.22 117.582 111.995 118.895C112.77 120.207 113.544 121.442 114.319 122.755C115.868 125.302 117.572 127.773 119.275 130.321C121.444 133.409 123.613 136.42 125.936 139.276C127.098 140.743 128.26 142.056 129.422 143.445C130.041 144.14 130.583 144.758 131.203 145.453L132.597 147.074L132.829 147.306C132.907 147.383 132.984 147.537 133.062 147.46L133.681 147.151L134.843 146.611L135.463 146.302C135.618 146.225 135.85 146.148 136.005 146.07L137.167 145.607C137.941 145.298 138.716 145.067 139.49 144.835C141.039 144.372 142.666 143.986 144.292 143.677C147.468 143.059 150.721 142.751 153.896 142.596C157.072 142.442 160.17 142.365 163.113 142.287C166.134 142.21 169.077 142.133 171.865 142.056C177.519 141.901 182.708 141.747 187.51 141.67C197.037 141.438 204.705 140.975 209.971 140.357C215.238 139.585 218.104 138.968 218.026 138.736Z" fill="#393637"/>
<path d="M102.623 19.224C102.623 19.4556 103.166 19.61 104.095 19.6872C105.024 19.6872 106.341 19.6872 108.045 19.1468C108.897 18.8379 109.826 18.4519 110.678 17.7571C111.53 17.0622 112.382 15.9814 112.77 14.7461C113.544 12.2756 113.079 9.41903 111.763 6.9485C111.53 6.40807 111.143 5.94485 110.833 5.55882C110.523 5.0956 110.136 4.70958 109.749 4.24635C107.813 2.23904 105.179 1.08098 102.778 0.772163C100.455 0.540551 98.441 0.849368 96.8145 1.23539C95.188 1.62141 94.0263 2.08464 93.1743 2.47066C92.3998 2.85668 91.9351 3.16549 92.0125 3.39711C92.09 3.62872 92.5547 3.70592 93.4841 3.62872C94.3361 3.62872 95.6528 3.39711 97.2018 3.3199C98.7508 3.16549 100.532 3.08829 102.391 3.39711C103.32 3.55151 104.25 3.86033 105.102 4.32356C105.954 4.78678 106.806 5.40442 107.58 6.17646C107.89 6.48527 108.122 6.79409 108.432 7.18011C108.665 7.56613 108.897 7.87495 109.129 8.26097C110.214 10.1139 110.523 12.2756 110.136 13.8969C109.749 15.5182 108.51 16.5218 107.27 17.1395C105.954 17.7571 104.792 18.1431 103.94 18.4519C103.088 18.7607 102.623 18.9924 102.623 19.224Z" fill="#393637"/>
<path d="M156.762 17.0621C156.762 17.2937 157.149 17.6026 158.001 17.6026C158.853 17.6026 160.17 17.0621 161.099 15.7497C161.254 15.5952 161.332 15.4408 161.409 15.2092C161.487 15.0548 161.564 14.8232 161.641 14.6688C161.796 14.2828 161.951 13.8968 162.029 13.4335C162.184 12.5843 162.339 11.5806 162.184 10.577C161.951 8.56967 161.099 6.56236 159.628 4.78666C159.318 4.40064 159.008 4.09182 158.698 3.78301C158.389 3.47419 158.001 3.16537 157.691 2.85656C157.227 2.47053 156.762 2.16172 156.297 1.93011C155.833 1.69849 155.368 1.46688 154.826 1.23527C153.896 0.849246 152.889 0.540429 152.037 0.386021C150.334 0 148.707 0 147.39 0C144.757 0.154408 143.208 0.617634 143.208 1.08086C143.208 1.54408 144.835 1.7757 147.235 2.16172C148.475 2.31613 149.946 2.54774 151.418 3.01096C152.192 3.24258 152.967 3.55139 153.741 3.86021C154.129 4.01462 154.516 4.24623 154.903 4.47784C155.213 4.70946 155.6 4.94107 155.91 5.17268C156.142 5.40429 156.452 5.63591 156.685 5.86752C156.917 6.09913 157.149 6.40795 157.382 6.63956C158.543 8.02924 159.24 9.49612 159.55 10.963C159.705 11.6578 159.705 12.3527 159.628 12.9703C159.55 13.2791 159.55 13.5879 159.473 13.8196C159.473 13.974 159.395 14.1284 159.395 14.2056C159.318 14.36 159.318 14.4372 159.24 14.5144C158.853 15.4408 158.156 15.9813 157.614 16.2901C157.149 16.6761 156.762 16.8305 156.762 17.0621Z" fill="#393637"/>
<path fill-rule="evenodd" clip-rule="evenodd" d="M72.4947 20.4592L70.0162 35.8229C70.0162 35.8229 96.04 138.659 132.752 151.552C169.154 141.361 192.002 145.762 199.438 147.074C206.951 148.464 210.359 149.081 210.359 149.081C210.359 149.081 225.462 140.821 218.026 138.736C210.591 136.729 139.878 143.06 139.878 143.06L133.372 145.607L128.337 139.817C128.337 139.817 82.1761 66.7045 72.4947 20.4592Z" fill="#221F20"/>
<path d="M213.147 154.949C213.224 154.486 209.507 153.405 203.233 152.015C200.135 151.32 196.417 150.394 192.08 149.622C187.82 148.927 182.941 148.386 177.829 148.309C176.822 148.309 175.815 148.232 174.731 148.309C173.724 148.309 172.717 148.309 171.633 148.309C161.409 148.695 152.425 150.317 146.229 151.861C143.053 152.633 140.652 153.405 138.948 154.1C137.244 154.717 136.392 155.18 136.47 155.412C136.547 155.644 137.554 155.566 139.258 155.335C141.039 155.026 143.518 154.563 146.693 154.022C152.967 152.941 161.796 151.552 171.788 151.32C172.794 151.32 173.801 151.32 174.808 151.243C175.815 151.243 176.822 151.243 177.829 151.243C182.786 151.32 187.51 151.706 191.693 152.324C195.875 152.864 199.593 153.636 202.846 154.1C209.119 155.026 213.069 155.412 213.147 154.949Z" fill="#393637"/>
<path d="M132.597 155.412C132.675 155.103 131.126 154.485 128.57 152.864C126.014 151.32 122.528 148.695 118.733 144.758C114.938 140.82 110.911 135.648 106.961 129.549C103.011 123.372 99.0606 116.269 95.2654 108.472C94.4909 106.928 93.7938 105.384 93.0193 103.84C92.3223 102.295 91.5477 100.751 90.8507 99.1301C83.8026 83.3032 78.6133 68.7888 74.9731 58.4435C71.3329 48.0209 69.3191 41.6901 68.777 41.8446C68.3123 41.999 69.7064 48.5613 72.8819 59.1383C76.0574 69.7153 81.0143 84.3841 88.0624 100.365C88.7595 101.987 89.534 103.531 90.2311 105.152C90.9281 106.696 91.7027 108.317 92.4772 109.861C96.3497 117.736 100.377 124.916 104.56 131.17C108.742 137.346 113.002 142.596 117.107 146.456C121.134 150.316 125.007 152.864 127.873 154.177C130.816 155.335 132.52 155.644 132.597 155.412Z" fill="#393637"/>
<path d="M211.443 161.048C211.52 160.585 207.803 159.504 201.529 158.114C198.431 157.419 194.713 156.416 190.376 155.721C186.116 155.026 181.237 154.486 176.125 154.408C175.118 154.408 174.111 154.331 173.027 154.408C172.02 154.408 171.013 154.408 169.929 154.408C159.705 154.794 150.721 156.416 144.525 157.96C141.349 158.732 138.948 159.504 137.244 160.199C135.54 160.816 134.688 161.28 134.766 161.511C134.843 161.743 135.85 161.666 137.554 161.434C139.335 161.125 141.814 160.662 144.989 160.121C151.263 159.041 160.093 157.651 170.084 157.419C171.091 157.419 172.097 157.419 173.104 157.342C174.111 157.342 175.118 157.342 176.125 157.342C181.082 157.419 185.806 157.805 189.989 158.423C194.171 158.963 197.889 159.735 201.142 160.199C207.493 161.202 211.365 161.511 211.443 161.048Z" fill="#393637"/>
<path d="M130.893 161.511C130.971 161.202 129.422 160.585 126.866 158.964C124.31 157.419 120.825 154.795 117.029 150.857C113.234 146.92 109.207 141.747 105.257 135.648C101.307 129.472 97.3567 122.369 93.5616 114.571C92.7871 113.027 92.09 111.483 91.3155 109.939C90.6184 108.395 89.8439 106.851 89.1468 105.229C82.0987 89.4026 76.9095 74.8882 73.2693 64.5428C69.629 54.1203 67.6153 47.7895 67.0731 47.9439C66.6084 48.0983 68.0025 54.6607 71.1781 65.2377C74.3536 75.8146 79.3105 90.4834 86.3586 106.465C87.0556 108.086 87.8302 109.63 88.5272 111.251C89.2243 112.795 89.9988 114.417 90.7733 115.961C94.6459 123.836 98.6734 131.016 102.856 137.269C107.038 143.446 111.298 148.695 115.403 152.556C119.43 156.416 123.303 158.964 126.169 160.276C129.189 161.434 130.893 161.743 130.893 161.511Z" fill="#393637"/>
<path d="M59.87 129.085C58.2436 129.24 56.6171 129.935 55.223 131.093C53.8288 132.251 52.5896 133.795 51.7376 135.571C51.2729 136.574 50.8082 137.578 50.4984 138.659C50.3435 139.199 50.1886 139.74 50.0337 140.28C49.9562 140.512 49.8788 140.743 49.8788 141.129C49.7239 141.67 49.6464 142.365 49.569 142.905L49.1817 143.6L48.9494 143.986L48.8719 144.063V144.14V144.218C48.8719 144.14 48.9494 144.295 48.7945 144.14C48.7945 144.218 48.717 144.218 48.6396 144.295C48.0974 144.526 47.5552 144.449 47.168 144.063C46.8582 143.909 46.5484 143.677 46.2386 143.6L45.8513 143.445C45.5415 143.291 45.3091 143.214 44.9993 143.137C43.8376 142.828 42.5983 142.828 41.3591 143.137C39.965 143.445 39.0356 143.677 39.113 143.137C39.1905 142.982 39.1905 142.751 39.2679 142.596C39.4228 142.133 39.7326 141.747 40.1199 141.593C40.8944 141.129 41.7464 140.898 42.5209 140.743C43.1405 140.666 43.7601 140.666 44.3797 140.743C45.3091 140.821 46.2386 141.052 47.0905 141.515C47.2454 141.593 47.4778 141.747 47.6327 141.901C47.7101 141.979 47.7101 141.979 47.7876 141.979C47.8651 141.979 47.865 141.901 47.865 141.824L47.9425 141.438C48.02 141.207 48.02 140.898 48.1749 140.435C48.3298 139.971 48.4072 139.431 48.5621 138.968C49.1817 136.883 50.0337 134.953 51.118 133.177C52.2798 131.324 53.7514 129.78 55.3779 128.699C56.4622 128.005 57.7014 127.464 58.8632 127.233L59.7926 127.078L60.2573 127.001H60.722H61.6514C61.9612 127.001 62.271 127.078 62.5034 127.155C64.4397 127.541 66.1436 128.622 67.3829 130.321C68.5446 131.942 69.3966 133.949 69.8613 136.111C70.2486 138.041 70.4809 140.048 70.4809 142.133C70.4809 142.673 70.4809 143.137 70.4809 143.677C70.4809 144.218 70.4035 144.681 70.4035 145.221C70.4035 145.376 70.4035 145.53 70.326 145.762L70.1711 146.302L69.9388 147.383L69.7838 147.923L69.7064 148.232C69.7064 148.309 69.5515 148.387 69.5515 148.387C69.3191 148.541 69.0093 148.618 68.777 148.541C68.2348 148.464 67.6927 148.309 67.1505 148.078L66.2211 147.769C65.6015 147.537 64.9819 147.383 64.3622 147.228C63.123 146.842 61.8838 146.611 60.6446 146.456C58.1661 146.07 55.6877 146.225 53.1318 146.997C51.97 147.383 50.8082 147.615 49.7239 147.537C48.8719 147.46 48.5621 147.074 49.3366 146.456C50.5759 145.53 51.97 144.835 53.2867 144.449C54.6808 144.063 56.0749 143.831 57.3916 143.831C59.4828 143.831 61.574 144.14 63.5877 144.681C64.7495 144.99 65.8338 145.376 66.9181 145.762L67.6927 146.07L67.925 146.148H68.0799C68.1574 146.148 68.3123 146.225 68.3897 146.225C68.4672 146.225 68.4672 146.148 68.4672 146.07V145.839L68.5446 145.453L68.6221 144.526C68.6995 143.831 68.6221 143.214 68.6221 142.519C68.6221 141.824 68.6221 141.207 68.5446 140.589C68.4672 139.971 68.3897 139.276 68.3123 138.659C68.0799 137.269 67.7701 135.879 67.3054 134.567C66.6858 132.868 65.6789 131.479 64.3622 130.475C63.0456 129.549 61.4965 129.24 59.9475 129.472L59.87 129.085Z" fill="#221F1F"/>
<path d="M37.7964 139.971L37.7189 141.824L37.4866 144.217C37.4091 144.449 37.3317 144.758 37.2542 144.989C37.1768 145.221 37.0219 145.375 36.7895 145.607C36.4023 145.916 35.9376 146.147 35.5503 146.147C35.3179 146.147 35.0856 146.147 34.8532 146.07H34.466H34.2336L33.4591 145.916C32.4522 145.761 31.5228 145.53 30.5934 145.53C26.7983 145.298 22.9257 145.761 19.208 147.074C17.9688 147.46 17.1943 147.46 17.2717 146.92C17.2717 146.765 17.3492 146.611 17.4266 146.456C17.7364 145.761 18.2011 145.298 19.9825 144.681C20.4472 144.526 20.9119 144.372 21.4541 144.217C25.0943 143.291 28.7346 142.982 32.2973 143.445C32.9944 143.523 33.6915 143.677 34.3885 143.754L34.8532 143.831H35.163C35.3179 143.831 35.6277 143.831 35.7052 143.754C35.7826 143.6 35.7826 143.445 35.7826 143.368L35.8601 142.287C35.9376 141.824 35.8601 141.361 35.9376 140.898C35.9376 139.971 35.9376 139.045 35.8601 138.118C35.7052 136.497 35.3954 134.876 34.7758 133.409C34.2336 132.019 33.3042 130.938 32.2199 130.166C31.9875 130.012 31.7552 129.857 31.4454 129.703L30.5934 129.394C29.9738 129.24 29.4316 129.24 28.812 129.317C28.1924 129.317 27.5728 129.471 26.9532 129.703C26.6434 129.78 26.3336 129.935 26.0237 130.089C25.7139 130.243 25.4041 130.398 25.0943 130.552C20.9894 132.56 19.1306 137.578 18.0462 142.519C17.8139 143.754 17.2717 144.912 16.4972 145.916C15.955 146.533 15.4129 146.688 15.4903 145.839C15.6452 143.137 16.2648 140.512 17.2717 137.964C17.9688 135.879 19.0531 133.949 20.2923 132.251C21.0668 131.247 21.9188 130.398 22.8482 129.78C23.7777 129.163 24.7845 128.622 25.7139 128.159C27.8051 127.155 29.9738 127.001 31.9875 127.696C32.1424 127.696 32.2973 127.773 32.3748 127.85L32.762 128.082L33.614 128.545L34.3111 129.163C34.5434 129.394 34.6983 129.626 34.9307 129.857C36.015 131.17 36.7895 132.868 37.1768 134.644C37.4091 135.493 37.564 136.42 37.6415 137.346C37.7189 137.809 37.7189 138.273 37.7189 138.736C37.7189 139.122 37.7189 139.585 37.7964 139.971Z" fill="#221F1F"/>
<path d="M67.6153 148.927C66.6858 148.309 65.6015 147.769 64.5172 147.46C63.4329 147.074 62.2711 146.92 61.1093 146.842C57.9338 146.688 54.6808 147.151 51.5053 148.309C50.421 148.695 49.8014 148.618 49.8014 148.078C49.8014 147.923 49.8014 147.769 49.8788 147.615C50.0337 146.92 50.4985 146.534 52.0475 145.916C52.4347 145.762 52.8995 145.684 53.2867 145.53C55.1456 144.99 57.0818 144.681 58.9407 144.604C61.4191 144.449 63.8201 144.758 66.0662 145.53C66.8407 145.839 67.5378 146.148 68.2349 146.534L70.2486 147.846C72.3398 149.236 74.5084 150.548 76.6771 151.861C78.6134 153.019 80.6271 154.331 82.5634 155.335C83.9575 155.953 85.3517 156.647 86.6683 157.188C87.3654 157.497 87.985 157.805 88.6821 157.96C88.9919 158.037 89.3017 158.191 89.6115 158.191C89.689 158.114 89.689 157.96 89.7664 157.883C89.8439 157.574 89.9213 157.342 89.9988 157.033C90.1537 156.107 90.5409 155.181 90.9282 154.408C91.3154 153.714 91.7802 153.405 91.9351 154.1C92.1674 155.026 92.1674 156.03 92.0125 157.033C91.9351 157.574 91.7802 158.114 91.6253 158.577C91.5478 158.809 91.3929 159.118 91.238 159.35C91.1605 159.504 91.0831 159.658 91.0056 159.736C90.9282 159.89 90.7733 160.044 90.6958 160.122C90.2311 160.585 89.689 160.739 89.1468 160.585C88.7595 160.508 88.3723 160.43 87.985 160.276C87.5978 160.122 87.288 160.044 86.9782 159.89C86.2811 159.581 85.6615 159.272 84.9644 158.964C82.0212 157.574 79.233 156.03 76.3673 154.408C75.5928 153.945 74.8183 153.405 74.0437 152.942L70.7908 150.934L69.1643 149.931L68.3898 149.39L68.0025 149.159L67.7702 149.004C67.6927 149.004 67.6153 148.927 67.6153 148.927Z" fill="#221F1F"/>
<path d="M18.3561 150.78C17.8139 150.394 17.2718 150.085 16.5747 149.776L16.1874 149.545C16.11 149.467 16.0325 149.39 16.0325 149.313L15.8776 149.004L15.8002 148.773C15.8002 148.695 15.7227 148.541 15.8002 148.387C15.8002 148.309 15.8002 148.232 15.8002 148.232C15.8002 148.155 15.8002 148.001 15.8776 147.923C15.9551 147.537 16.1874 147.229 16.4972 146.997C16.9619 146.611 17.4267 146.379 17.9688 146.225C18.5884 145.993 19.208 145.839 19.9051 145.684L21.2218 145.376C21.9188 145.221 22.6159 145.067 23.313 144.99C25.4042 144.681 27.4954 144.526 29.5866 144.526C31.6777 144.526 33.6915 144.835 35.5503 145.53C36.7896 146.07 37.3317 146.843 36.9445 147.151C36.7896 147.229 36.7121 147.383 36.5572 147.46C36.015 147.846 35.5503 147.769 33.9238 147.383C33.4591 147.306 33.0719 147.151 32.6072 147.074C30.516 146.765 28.4248 146.688 26.2561 146.842C24.862 146.997 23.4679 147.151 22.0737 147.46L20.9894 147.692L20.5247 147.769L20.2149 147.846C19.8277 147.923 19.5178 148.078 19.1306 148.232C19.0531 148.309 18.8982 148.309 18.8208 148.387V148.464L18.8982 148.541L19.0531 148.618L19.6727 148.927L20.2924 149.313L21.5316 150.162C24.01 151.861 26.4885 153.714 28.8895 155.567C31.0581 157.265 33.1493 159.195 35.318 160.739L40.7396 164.677C41.5915 165.294 42.521 165.912 43.3729 166.375L43.6827 166.53H43.7602V166.452C43.7602 166.375 43.7602 166.375 43.7602 166.298C43.8376 166.221 43.8376 166.066 43.8376 165.989C44.1475 164.985 44.4573 163.982 44.922 162.978C45.3092 162.206 45.7739 161.82 45.9288 162.669C46.2386 164.059 46.1612 165.603 45.619 167.07C45.5416 167.302 45.4641 167.456 45.3867 167.688C45.2318 167.919 45.1543 168.151 44.9994 168.382C44.7671 168.768 44.3798 169.077 43.9151 169.155C43.5278 169.155 43.0631 169.077 42.7533 168.846C42.4435 168.691 42.2112 168.537 41.9788 168.382C40.5072 167.456 39.1131 166.375 37.7964 165.294C34.6984 162.978 31.6777 160.585 28.5797 158.192C27.7277 157.497 26.8757 156.802 26.0238 156.107C24.862 155.181 23.6228 154.331 22.461 153.482C21.8414 153.019 21.2992 152.633 20.6022 152.247L19.6727 151.629L19.208 151.32L18.3561 150.78Z" fill="#221F1F"/>
<path opacity="0.2" d="M59.9476 142.751C55.6103 142.21 50.8857 144.604 50.8857 144.604C53.7515 132.637 57.9338 129.163 63.3555 130.321C68.7771 131.479 68.4673 144.835 68.4673 144.835C65.679 143.831 62.8133 143.137 59.9476 142.751Z" fill="#221F1F"/>
<path opacity="0.2" d="M27.6502 142.287C23.2355 141.978 18.5884 144.526 18.5884 144.526C21.0668 134.258 24.7071 130.243 29.3542 130.475C36.6346 130.938 35.5503 143.909 35.5503 143.909C32.9944 143.136 30.361 142.519 27.6502 142.287Z" fill="#221F1F"/>
<path d="M63.123 138.968C63.123 138.968 62.6583 138.35 62.1936 137.732C61.8838 137.269 61.574 136.806 61.1867 136.343C61.1093 136.265 61.0318 136.188 60.9544 136.111C60.8769 136.034 60.7995 135.957 60.7995 135.879C60.722 135.648 60.5671 135.416 60.4122 135.262C60.3348 135.185 60.2573 134.876 60.2573 134.876C60.2573 134.876 60.2573 134.953 60.2573 134.799C60.2573 134.644 60.4122 134.567 60.4897 134.567L60.5671 134.644C60.722 134.721 60.7995 134.876 60.9544 134.953C61.1093 135.107 61.1867 135.185 61.3416 135.262C61.574 135.493 61.7289 135.725 61.8838 135.957L62.3485 136.651C62.5809 136.96 62.7358 137.192 62.9681 137.501L63.5877 138.504C63.6652 138.582 63.6652 138.736 63.4328 139.122C63.2779 138.968 63.2005 138.968 63.123 138.968Z" fill="#221F1F"/>
<path d="M60.4897 138.89C60.4122 138.89 59.0181 137.346 58.7857 137.192L58.5534 137.037C58.4759 136.96 58.4759 136.96 58.3985 136.883C58.321 136.729 58.1661 136.574 58.0887 136.42C58.0112 136.343 58.0112 136.034 58.0112 136.034C58.0112 136.034 57.9338 136.111 58.0112 135.957C58.0887 135.802 58.1661 135.725 58.2436 135.725C58.321 135.648 58.321 135.725 58.321 135.725L58.5534 135.957L58.7857 136.188L59.6377 137.115C59.7926 137.269 59.9475 137.423 60.1799 137.655C60.3348 137.887 60.5671 138.118 60.722 138.35C60.7995 138.427 60.7995 138.504 60.6446 138.89C60.6446 138.89 60.5671 138.89 60.4897 138.89Z" fill="#221F1F"/>
<path d="M31.5228 137.192C31.4453 137.192 30.9032 136.574 30.2836 135.879C29.8189 135.416 29.3541 134.953 28.8894 134.49C28.812 134.412 28.6571 134.335 28.5022 134.258C28.4247 134.181 28.3473 134.104 28.2698 134.026C28.1149 133.795 27.8051 133.486 27.7277 133.409C27.6502 133.332 27.6502 133.023 27.5728 132.946C27.5728 132.791 27.6502 132.637 27.8051 132.637H27.8826L28.3473 132.946L28.812 133.332C29.2767 133.795 29.7414 134.258 30.2061 134.721C30.4385 135.03 30.6708 135.184 30.9806 135.57C31.2904 135.957 31.5228 136.265 31.7551 136.651C31.8326 136.729 31.91 136.883 31.7551 137.269C31.6777 137.269 31.6002 137.269 31.5228 137.192Z" fill="#221F1F"/>
<path d="M29.8963 137.964C29.8963 137.964 29.1992 137.115 28.5022 136.265C27.96 135.648 27.3404 135.107 26.7208 134.644C26.5659 134.567 26.411 134.49 26.3335 134.335L26.0237 134.104C25.7914 133.872 25.4816 133.718 25.2492 133.563C25.0943 133.486 25.0168 133.254 24.8619 133.177V133.1V133.023C24.8619 132.946 24.9394 132.868 25.0168 132.868H25.0943C25.3267 132.946 25.4816 133.023 25.7139 133.177C25.9463 133.332 26.1012 133.409 26.3335 133.563C26.9531 134.026 27.5727 134.567 28.1149 135.185C28.4247 135.493 28.7345 135.802 29.0443 136.265C29.3541 136.729 29.7414 137.115 30.0512 137.655C30.1286 137.809 30.2061 137.964 30.2061 138.118C30.0512 138.118 29.9737 138.041 29.8963 137.964Z" fill="#221F1F"/>
<path d="M63.2779 74.4249C63.3554 73.4212 50.6533 72.2631 34.1562 71.8771C33.3042 71.8771 32.5297 71.8771 31.6777 71.8771C30.8257 71.8771 30.0512 71.8771 29.1993 71.8771C12.6246 71.7227 0 72.572 0 73.5756C0 74.5021 12.7021 74.5021 29.1218 74.8109C29.9738 74.8109 30.7483 74.8109 31.6002 74.8109C32.4522 74.8109 33.2267 74.8109 34.0787 74.8881C50.5759 75.0425 63.2005 75.3513 63.2779 74.4249Z" fill="#1B1B1B"/>
<path d="M247.38 67.5536C247.535 66.55 240.642 64.9287 231.348 64.3883C230.883 64.3883 230.418 64.3111 229.954 64.3111C229.489 64.3111 229.024 64.3111 228.56 64.2339C219.343 63.925 212.295 64.9287 212.372 65.9323C212.45 66.8588 219.42 66.7816 228.482 67.2448C228.947 67.2448 229.412 67.2448 229.799 67.322C230.264 67.322 230.728 67.3992 231.115 67.3992C240.255 67.708 247.225 68.4801 247.38 67.5536Z" fill="#1B1B1B"/>
</g>
<defs>
<clipPath id="clip0_201_3457">
<rect width="248" height="169" fill="white"/>
</clipPath>
</defs>
</svg>
