<svg width="200" height="190" viewBox="0 0 200 190" fill="none" xmlns="http://www.w3.org/2000/svg">
<g clip-path="url(#clip0_201_1356)">
<path d="M39.3866 23.7601C38.2567 28.5121 34.4633 32.5392 30.5085 33.9085C26.473 35.3582 21.9532 33.989 20.1776 29.9619C17.5949 24.0823 21.3075 15.0615 29.2978 12.8869C36.8846 10.7927 40.9201 17.0751 39.3866 23.7601Z" fill="#E2E2E2"/>
<path d="M35.7547 11.0343C35.8354 10.7927 35.1897 10.1484 33.5755 9.58458C32.7684 9.34295 31.7191 9.18186 30.5085 9.26241C30.1857 9.26241 29.8628 9.34295 29.54 9.34295C29.2171 9.42349 28.8943 9.50403 28.5715 9.58458C28.2486 9.66512 27.9258 9.74566 27.5222 9.8262C27.1994 9.98729 26.8765 10.0678 26.473 10.2289C25.7466 10.4705 25.1009 10.8733 24.2938 11.276C23.971 11.5176 23.5674 11.7592 23.2446 12.0009C23.0832 12.1619 22.9217 12.2425 22.6796 12.4036C22.5182 12.5647 22.3568 12.7257 22.1953 12.8868C20.8233 14.095 19.6933 15.7058 18.7248 17.4778C17.837 19.3302 17.1913 21.4243 17.0299 23.6795C16.8685 25.9347 17.1106 28.351 18.3212 30.6867C18.8055 31.6532 19.4512 32.4587 20.2583 33.1836C21.0654 33.9084 21.8725 34.4722 22.841 34.875C25.2623 35.922 27.7643 36.0025 30.0242 35.5193C32.2841 35.036 34.3019 33.9084 35.8354 32.6198C39.0638 30.0424 40.9201 26.7402 41.4851 23.7601C42.0501 20.78 41.5658 18.2832 40.9201 16.8334C40.2744 15.3031 39.548 14.7393 39.3059 14.8198C39.0638 14.9809 39.3866 15.7864 39.6288 17.2361C39.8709 18.6859 40.0323 20.78 39.3059 23.2768C38.5795 25.6931 36.8846 28.4315 34.0597 30.4451C32.6877 31.4116 31.0735 32.2976 29.2978 32.6198C27.5222 32.9419 25.6659 32.8614 23.971 32.1365C23.3253 31.8143 22.6796 31.4116 22.1953 31.0089C21.7111 30.5257 21.2268 29.9619 20.904 29.3175C20.0162 27.7067 19.774 25.7736 19.9355 23.9212C20.0162 22.0687 20.5004 20.2967 21.2268 18.7664C21.9532 17.2361 22.841 15.8669 23.8903 14.8198C24.0517 14.6588 24.1324 14.5782 24.2938 14.4171L24.6974 14.095C24.9395 13.8533 25.2623 13.6117 25.5045 13.4506C26.0694 13.0479 26.6344 12.6452 27.1994 12.4036C27.5222 12.2425 27.7643 12.0814 28.0065 12.0009C28.3293 11.9203 28.5714 11.8398 28.8136 11.6787C29.3786 11.4371 29.8628 11.276 30.3471 11.1954C31.3156 10.9538 32.2034 10.9538 32.9298 11.0343C34.7861 11.0343 35.674 11.276 35.7547 11.0343Z" fill="#1B1B1B"/>
<path d="M30.8314 18.2026C29.7821 18.2832 29.6207 20.6995 29.4593 23.6795C29.4593 23.8406 29.4593 24.0017 29.4593 24.1628C29.4593 24.3239 29.4593 24.485 29.4593 24.646C29.4593 27.6261 29.4593 29.9619 30.5085 30.2035C31.477 30.3646 32.4456 28.0288 32.607 24.7266C32.607 24.5655 32.607 24.4044 32.607 24.2433C32.607 24.0822 32.607 23.9212 32.607 23.7601C32.5263 20.5384 31.7192 18.1221 30.8314 18.2026Z" fill="#1B1B1B"/>
<path d="M35.9161 22.9546C35.6739 21.9076 33.4948 21.9881 30.7506 22.5519C30.5892 22.5519 30.5085 22.6324 30.3471 22.6324C30.1856 22.6324 30.1049 22.713 29.9435 22.713C27.2801 23.4379 25.2623 24.3238 25.5045 25.3709C25.7466 26.3374 27.9258 26.3374 30.6699 25.7736C30.8313 25.7736 30.912 25.6931 31.0735 25.6931C31.2349 25.6931 31.3156 25.6125 31.477 25.6125C34.2212 24.8876 36.1582 23.9211 35.9161 22.9546Z" fill="#1B1B1B"/>
<path d="M115.335 100.598C115.658 99.6311 96.5295 93.0266 71.4286 84.8918C70.1372 84.4891 68.9266 84.0864 67.7159 83.6837C66.5053 83.281 65.2139 82.8782 64.0032 82.4755C38.9023 74.5018 19.5319 68.7027 19.209 69.6693C18.8862 70.5552 38.0145 77.2403 63.1154 85.3751C64.4068 85.7778 65.6174 86.1805 66.8281 86.5832C68.0387 86.9859 69.3301 87.3886 70.5408 87.7913C95.6417 95.8456 115.012 101.484 115.335 100.598Z" fill="#1B1B1B"/>
<path d="M110.896 108.732C111.219 107.766 93.4625 101.564 70.2179 93.9931C69.0073 93.5904 67.8773 93.2683 66.7474 92.8656C65.6175 92.4628 64.4068 92.1407 63.2769 91.738C39.9516 84.328 21.9532 79.0122 21.6304 79.9787C21.3075 80.8647 39.0638 87.147 62.3083 94.718C63.519 95.1207 64.6489 95.4429 65.7789 95.8456C66.9088 96.2483 68.1195 96.5705 69.2494 96.9732C92.5747 104.383 110.654 109.699 110.896 108.732Z" fill="#1B1B1B"/>
<path d="M105.327 160.441L110.896 162.213" stroke="#1B1B1B" stroke-width="0.5645" stroke-miterlimit="10"/>
<path d="M21.5497 80.0594C22.1146 80.0594 22.276 78.1264 22.3568 75.6296C22.3568 75.4685 22.3568 75.3879 22.3568 75.2268C22.3568 75.0658 22.3568 74.9852 22.3568 74.8241C22.3568 72.3273 22.1146 70.3943 21.5497 70.3943C21.0654 70.3943 20.8233 72.3273 20.7426 74.8241C20.7426 74.9852 20.7426 75.0658 20.7426 75.2268C20.7426 75.3879 20.7426 75.4685 20.7426 75.6296C20.8233 78.1264 21.0654 80.0594 21.5497 80.0594Z" fill="#1B1B1B"/>
<path d="M19.1283 69.5083C19.6933 69.5083 19.8547 68.3807 19.9354 66.8504C19.9354 66.7698 19.9354 66.6893 19.9354 66.6088C19.9354 66.5282 19.9354 66.4477 19.9354 66.3671C19.9354 64.9174 19.6933 63.7092 19.1283 63.7092C18.6441 63.7092 18.4019 64.8368 18.3212 66.3671C18.3212 66.4477 18.3212 66.5282 18.3212 66.6088C18.3212 66.6893 18.3212 66.7698 18.3212 66.8504C18.4019 68.3002 18.6441 69.5083 19.1283 69.5083Z" fill="#1B1B1B"/>
<path d="M182.244 62.9842C182.809 62.9842 182.97 62.5009 183.051 61.9371V61.8566V61.7761C183.051 61.1317 182.809 60.729 182.244 60.729C181.759 60.729 181.517 61.2123 181.437 61.7761V61.8566V61.9371C181.517 62.5009 181.759 62.9842 182.244 62.9842Z" fill="#1B1B1B"/>
<path d="M188.216 54.5273V57.5074" stroke="#1B1B1B" stroke-width="0.5645" stroke-miterlimit="10"/>
<path d="M110.977 108.652C111.542 108.652 111.703 106.799 111.784 104.303C111.784 104.142 111.784 104.061 111.784 103.9C111.784 103.739 111.784 103.658 111.784 103.497C111.784 101.081 111.542 99.1479 110.977 99.1479C110.492 99.1479 110.25 101 110.169 103.497C110.169 103.658 110.169 103.739 110.169 103.9C110.169 104.061 110.169 104.142 110.169 104.303C110.25 106.719 110.492 108.652 110.977 108.652Z" fill="#1B1B1B"/>
<path d="M115.335 100.598C115.9 100.598 116.061 99.3897 116.142 97.7788C116.142 97.6983 116.142 97.6177 116.142 97.5372C116.142 97.4566 116.142 97.3761 116.142 97.2956C116.142 95.6847 115.9 94.4766 115.335 94.4766C114.851 94.4766 114.609 95.6847 114.528 97.2956C114.528 97.3761 114.528 97.4566 114.528 97.5372C114.528 97.6177 114.528 97.6983 114.528 97.7788C114.609 99.3897 114.851 100.598 115.335 100.598Z" fill="#1B1B1B"/>
<path d="M119.693 92.8655C120.42 92.1406 109.605 80.7036 95.1574 66.2865C94.431 65.5616 93.7046 64.8367 92.9782 64.1118C92.2518 63.3869 91.5254 62.6621 90.799 61.9372C76.2712 47.6006 64.8103 36.8079 64.0839 37.5328C63.4382 38.1771 74.1727 49.6947 88.6198 64.1118C89.3462 64.8367 90.0726 65.5616 90.799 66.2865C91.5254 67.0114 92.2518 67.7362 92.9782 68.4611C107.587 82.7977 119.048 93.5099 119.693 92.8655Z" fill="#1B1B1B"/>
<path d="M119.693 96.0069C119.855 95.5236 112.187 92.6241 99.3543 88.2748C86.5214 83.9255 68.6037 78.0459 48.3455 71.4414C46.3277 70.797 44.3099 70.1527 42.2922 69.5083C40.2744 68.864 38.2567 68.2197 36.2389 67.5753C29.7821 65.5618 23.6481 63.5482 17.837 61.6957V61.8568V62.0179C17.837 62.0984 17.837 61.9373 17.837 61.9373V61.6957V62.0179C24.5359 58.6351 30.7506 55.5745 36.3196 52.7555C42.1308 49.8559 47.1348 47.2786 51.3317 45.1039C59.6449 40.7546 64.4875 38.0162 64.2454 37.694C64.084 37.3718 58.9992 39.4659 50.4439 43.4125C46.1663 45.3456 41.0008 47.7618 35.1897 50.5808C32.1227 51.7084 29.0557 53.2387 25.8273 54.769C22.3568 56.4604 18.6441 58.2324 14.8507 60.0849C14.8507 61.293 14.8507 62.5817 14.8507 63.8704C21.3075 65.9645 28.1679 68.2197 35.2704 70.4748C37.2882 71.1192 39.3059 71.7635 41.3237 72.4079C43.3414 73.0522 45.3592 73.6966 47.3769 74.3409C67.7159 80.8648 85.7143 86.4223 98.7087 90.3689C111.703 94.3155 119.532 96.4096 119.693 96.0069Z" fill="#1B1B1B"/>
<path d="M66.1824 36.4857C66.4245 36.969 73.3656 33.9889 84.7457 28.6731C96.1259 23.3573 111.864 15.8668 129.621 7.16819C131.396 6.28222 133.172 5.39625 134.948 4.59083L135.674 4.26866L136.32 4.913L137.692 6.28222C151.735 20.2161 164.165 32.378 173.204 41.0766C182.244 49.6947 187.893 54.8494 188.297 54.4467C188.62 54.1245 183.535 48.4865 174.818 39.4658C166.102 30.445 153.834 18.0414 139.871 4.10757L136.239 0.483154L133.495 1.85238C131.719 2.73835 129.943 3.54377 128.168 4.42974C110.412 13.1283 94.8345 20.941 83.6965 26.6595C72.6392 32.4586 66.021 36.083 66.1824 36.4857Z" fill="#1B1B1B"/>
<path d="M119.693 92.8657V95.8458" stroke="#1B1B1B" stroke-width="0.5645" stroke-miterlimit="10"/>
<path d="M119.693 92.8656C120.178 93.7516 134.14 86.5027 152.058 76.596C152.946 76.1127 153.834 75.6295 154.722 75.0657C155.609 74.5824 156.497 74.0992 157.385 73.6159C175.222 63.5481 188.701 55.5744 188.216 54.6079C187.732 53.8024 173.769 60.9707 155.851 70.8775C154.964 71.3607 154.076 71.844 153.188 72.4078C152.3 72.891 151.412 73.3743 150.525 73.8575C132.768 83.9254 119.29 91.9796 119.693 92.8656Z" fill="#1B1B1B"/>
<path d="M173.608 120.814C173.527 121.136 175.545 122.022 179.338 123.472C181.195 124.197 183.535 125.002 186.279 125.969C187.651 126.452 189.104 126.935 190.638 127.499C191.041 127.66 191.445 127.741 191.768 127.902L192.01 127.982H192.09L192.252 128.063C192.413 128.143 192.494 128.224 192.655 128.224C192.575 128.304 192.413 128.304 192.333 128.385L192.171 128.465H192.09C192.09 128.465 192.09 128.465 191.929 128.546C190.799 129.19 189.588 129.835 188.378 130.479C185.956 131.768 183.454 133.137 180.791 134.587C175.545 137.486 169.814 140.627 163.842 143.93C162.389 144.735 160.936 145.541 159.483 146.346C158.031 147.151 156.578 147.957 155.125 148.762C140.517 156.897 127.684 164.146 118.563 169.542C109.443 174.939 103.955 178.321 104.278 178.805C104.52 179.207 110.331 176.388 119.693 171.475C129.056 166.562 142.05 159.474 156.659 151.42C158.111 150.615 159.564 149.809 161.017 149.004C162.47 148.198 163.923 147.393 165.375 146.588C171.348 143.285 176.998 140.064 182.244 137.084C188.378 133.62 194.027 130.399 199.031 127.499C197.498 127.016 195.964 126.532 194.512 126.13C193.462 125.808 192.413 125.485 191.445 125.163C189.911 124.68 188.458 124.277 187.086 123.875C184.342 123.069 181.921 122.425 179.984 121.942C175.948 121.056 173.688 120.572 173.608 120.814Z" fill="#1B1B1B"/>
<path d="M100.969 179.127C101.13 178.644 95.1574 176.308 85.3108 172.844C75.3834 169.381 61.5012 164.79 45.7627 159.716C44.1485 159.233 42.615 158.669 41.0815 158.186C39.548 157.702 37.9338 157.219 36.4003 156.655C30.2664 154.722 24.3745 152.87 18.8862 151.098C16.1421 150.212 13.4786 149.407 10.9766 148.601C9.76596 148.198 8.63602 147.876 7.42536 147.554C7.18323 147.474 7.02181 147.474 6.77968 147.393C6.9411 147.312 7.02181 147.232 7.18323 147.151L7.26394 147.071H7.34466L7.50608 146.99C7.90963 146.829 8.23247 146.588 8.63602 146.426C10.1695 145.621 11.5416 144.896 12.9137 144.252C15.5771 142.883 17.837 141.674 19.6933 140.627C23.406 138.614 25.4238 137.325 25.2623 137.003C25.1009 136.761 22.9217 137.567 18.9669 139.258C17.0299 140.064 14.6893 141.111 11.9451 142.399C10.5731 143.044 9.12028 143.688 7.58679 144.413C6.53755 144.896 5.48832 145.379 4.43909 145.863C2.9863 146.588 1.45281 147.232 -0.0806885 148.037C5.3269 149.809 11.3802 151.823 17.837 153.997C23.3253 155.769 29.1364 157.702 35.2704 159.716C36.8846 160.199 38.4181 160.763 39.9516 161.246C41.4851 161.73 43.0993 162.293 44.6328 162.777C60.3713 167.77 74.3342 172.12 84.4229 175.1C94.6731 177.999 100.807 179.61 100.969 179.127Z" fill="#1B1B1B"/>
<path d="M173.608 127.257L180.952 123.23L173.608 120.895V127.257Z" fill="#1B1B1B"/>
<path d="M67.8773 154.722L74.8184 151.017L67.7966 149.004L67.8773 154.722Z" fill="#1B1B1B"/>
<path d="M136.4 5.31592L187.248 54.4469L119.693 91.4965L66.2631 38.2578L136.4 5.31592Z" fill="#E2E2E2"/>
<path d="M105.165 166.321L111.542 162.374L105.165 160.521V166.321Z" fill="#1B1B1B"/>
<path d="M62.2276 54.769C60.9363 54.0441 59.2413 53.8831 58.1114 55.0106C57.0622 55.9772 56.9007 57.6686 57.8693 58.7961C58.3535 59.3599 59.0799 59.7627 59.6449 60.1654C60.2099 60.5681 60.7748 60.9708 61.2591 61.3735C61.5012 61.5346 61.5819 61.6957 61.7434 61.9373C61.7434 61.8568 61.7434 62.0984 61.7434 62.0179C61.7434 62.0984 61.7434 62.1789 61.7434 62.2595C61.7434 62.1789 61.7434 62.2595 61.7434 62.34C61.6626 62.5817 61.3398 62.9038 61.017 63.0649C60.5327 63.226 60.0484 63.1454 59.5642 62.8233C59.0799 62.5011 58.5957 62.0179 58.2728 61.5346C57.95 61.0513 57.385 60.8903 56.82 61.1319C56.3358 61.3735 56.1743 62.0984 56.4165 62.5816C57.1429 63.7092 58.2728 64.8368 59.6449 65.159C61.017 65.4812 62.4697 64.9979 63.3576 63.7898C64.2454 62.5011 63.8418 60.9708 62.7119 60.0043C62.1469 59.521 61.5012 59.0378 60.8555 58.6351C60.3713 58.2324 59.7256 57.9102 59.4028 57.4269C59.322 57.3464 59.322 57.1853 59.322 57.2658C59.322 57.0242 59.322 57.1048 59.4028 56.9437C59.4028 56.8631 59.5642 56.6215 59.6449 56.6215C60.1292 56.2993 60.7748 56.4604 61.2591 56.7826C62.3083 57.2658 63.3576 55.4939 62.2276 54.769Z" fill="#1B1B1B"/>
<path d="M59.2413 53.6413V67.1725C59.2413 68.5417 61.3398 68.5417 61.3398 67.1725C61.3398 63.2259 61.3398 59.2793 61.3398 55.3327V53.6413C61.3398 52.3526 59.2413 52.3526 59.2413 53.6413Z" fill="#1B1B1B"/>
<path d="M119.693 96.0067C120.178 96.8927 134.14 89.5633 151.977 79.576C152.865 79.0928 153.753 78.6095 154.641 78.0457C155.529 77.5625 156.416 77.0792 157.304 76.5154C175.061 66.4476 188.539 58.3128 188.055 57.4268C187.571 56.6214 173.608 63.8702 155.771 73.8575C154.883 74.3408 153.995 74.824 153.107 75.3878C152.22 75.8711 151.332 76.3543 150.444 76.9181C132.688 87.0665 119.29 95.2013 119.693 96.0067Z" fill="#1B1B1B"/>
<path d="M115.335 100.356C115.819 101.242 129.459 94.1544 146.973 84.4893C147.861 84.006 148.749 83.5228 149.556 83.0395C150.444 82.5562 151.251 82.073 152.139 81.5897C169.572 71.7635 182.728 63.9509 182.244 62.9844C181.76 62.179 168.119 69.1862 150.605 78.8513C149.718 79.3345 148.83 79.8178 148.023 80.301C147.135 80.7843 146.328 81.2676 145.44 81.7508C128.006 91.6576 114.851 99.5507 115.335 100.356Z" fill="#1B1B1B"/>
<path d="M110.977 108.733C111.461 109.619 125.424 102.37 143.341 92.4629C144.229 91.9797 145.117 91.4964 146.005 90.9326C146.893 90.4494 147.78 89.9661 148.668 89.4828C166.505 79.415 179.984 71.4413 179.5 70.4748C179.015 69.6694 165.052 76.8377 147.135 86.7444C146.247 87.2277 145.359 87.7109 144.471 88.2747C143.584 88.758 142.696 89.2412 141.808 89.7245C123.971 99.7923 110.492 107.927 110.977 108.733Z" fill="#1B1B1B"/>
<path d="M110.977 162.293C111.219 162.777 123.89 155.93 140.274 146.829C141.082 146.346 141.889 145.943 142.696 145.46C143.503 144.977 144.31 144.574 145.117 144.091C161.421 134.909 173.85 127.741 173.608 127.257C173.366 126.855 160.694 133.62 144.31 142.721C143.503 143.205 142.696 143.607 141.889 144.091C141.082 144.574 140.274 144.977 139.467 145.46C123.164 154.561 110.734 161.81 110.977 162.293Z" fill="#1B1B1B"/>
<path d="M67.8773 153.514C68.4423 153.514 68.6037 141.836 68.6844 126.694C68.6844 125.969 68.6844 125.163 68.6844 124.438C68.6844 123.714 68.6844 122.908 68.6844 122.183C68.6844 107.041 68.4423 95.3625 67.8773 95.3625C67.393 95.3625 67.1509 107.041 67.0702 122.183C67.0702 122.908 67.0702 123.714 67.0702 124.438C67.0702 125.163 67.0702 125.969 67.0702 126.694C67.0702 141.836 67.393 153.514 67.8773 153.514Z" fill="#1B1B1B"/>
<path d="M55.6094 91.4963C54.5601 91.4963 54.1566 106.88 54.0759 126.935C54.0759 127.982 54.0759 128.949 54.0759 129.915C54.0759 130.882 54.0759 131.929 54.0759 132.895C54.0759 137.889 54.1566 142.641 54.2373 146.91C54.318 149.004 54.318 151.017 54.318 152.95V153.273C54.318 153.434 54.318 153.434 54.318 153.675C54.318 154.078 54.4794 154.481 54.6408 154.803C54.9637 155.447 55.4479 155.85 55.9322 156.253C56.82 156.897 57.7885 157.219 58.6763 157.38C60.452 157.783 61.9855 157.702 63.3575 157.461C64.7296 157.219 65.7789 156.736 66.6667 156.172C67.4738 155.608 67.958 154.883 68.1195 154.32C68.2002 153.756 68.0387 153.514 67.958 153.514C67.7966 153.514 67.7159 153.756 67.4738 154.078C67.2316 154.4 66.8281 154.722 66.021 155.044C65.2946 155.367 64.3261 155.608 63.1961 155.608C62.0662 155.689 60.6941 155.608 59.322 155.206C58.6764 155.044 57.95 154.722 57.4657 154.32C57.2236 154.158 57.0621 153.917 56.9814 153.756C56.9007 153.675 56.9814 153.595 56.9814 153.595C56.9814 153.595 56.9814 153.434 56.9814 153.353V153.031C57.0621 151.178 57.0621 149.165 57.1429 146.99C57.2236 142.721 57.2236 138.05 57.3043 132.976C57.3043 131.929 57.3043 130.962 57.3043 129.996C57.3043 129.029 57.3043 127.982 57.3043 127.016C57.0621 106.88 56.5779 91.4963 55.6094 91.4963Z" fill="#1B1B1B"/>
<path d="M37.8531 144.977L44.7942 141.272L37.7724 139.258L37.8531 144.977Z" fill="#1B1B1B"/>
<path d="M37.7724 143.768C38.3373 143.768 38.4988 132.09 38.5795 116.948C38.5795 116.223 38.5795 115.417 38.5795 114.693C38.5795 113.968 38.5795 113.162 38.5795 112.437C38.5795 97.2954 38.3373 85.6167 37.7724 85.6167C37.2881 85.6167 37.046 97.2954 36.9653 112.437C36.9653 113.162 36.9653 113.968 36.9653 114.693C36.9653 115.417 36.9653 116.223 36.9653 116.948C37.046 132.09 37.2881 143.768 37.7724 143.768Z" fill="#1B1B1B"/>
<path d="M25.5851 81.6702C24.5359 81.6702 24.1323 97.0538 24.0516 117.109C24.0516 118.156 24.0516 119.122 24.0516 120.089C24.0516 121.056 24.0516 122.103 24.0516 123.069C24.0516 128.063 24.1323 132.815 24.2131 137.083C24.2938 139.178 24.2938 141.191 24.2938 143.124V143.446C24.2938 143.607 24.2938 143.607 24.2938 143.849C24.2938 144.252 24.4552 144.654 24.6166 144.977C24.9394 145.621 25.4237 146.024 25.908 146.426C26.7958 147.071 27.7643 147.393 28.6521 147.554C30.4277 147.957 31.9612 147.876 33.3333 147.635C34.7054 147.393 35.7546 146.91 36.6424 146.346C37.4495 145.782 37.9338 145.057 38.0952 144.493C38.1759 143.93 38.0145 143.688 37.9338 143.688C37.7724 143.688 37.6917 143.93 37.4495 144.252C37.2074 144.574 36.8039 144.896 35.9968 145.218C35.2704 145.54 34.3018 145.782 33.1719 145.782C32.0419 145.863 30.6699 145.782 29.2978 145.379C28.6521 145.218 27.9257 144.896 27.4415 144.493C27.1993 144.332 27.0379 144.091 26.9572 143.93C26.8765 143.849 26.9572 143.769 26.9572 143.769C26.9572 143.769 26.9572 143.607 26.9572 143.527V143.205C27.0379 141.352 27.0379 139.339 27.1186 137.164C27.1993 132.895 27.1993 128.143 27.28 123.15C27.28 122.103 27.28 121.136 27.28 120.17C27.28 119.203 27.28 118.156 27.28 117.189C27.0379 97.1343 26.5537 81.6702 25.5851 81.6702Z" fill="#1B1B1B"/>
<path d="M105.327 164.79C105.892 164.79 106.053 153.192 106.134 138.131C106.134 137.406 106.134 136.6 106.134 135.875C106.134 135.151 106.134 134.345 106.134 133.62C106.134 118.559 105.892 106.961 105.327 106.961C104.843 106.961 104.6 118.559 104.52 133.62C104.52 134.345 104.52 135.151 104.52 135.875C104.52 136.6 104.52 137.406 104.52 138.131C104.6 153.192 104.843 164.79 105.327 164.79Z" fill="#1B1B1B"/>
<path d="M110.977 162.293C111.542 162.293 111.703 151.259 111.784 136.842C111.784 136.117 111.784 135.392 111.784 134.667C111.784 133.942 111.784 133.217 111.784 132.492C111.784 118.075 111.542 107.041 110.977 107.041C110.492 107.041 110.25 118.075 110.169 132.492C110.169 133.217 110.169 133.942 110.169 134.667C110.169 135.392 110.169 136.117 110.169 136.842C110.25 151.178 110.492 162.293 110.977 162.293Z" fill="#1B1B1B"/>
<path d="M173.608 127.257C174.173 127.257 174.334 116.545 174.415 102.611C174.415 101.886 174.415 101.242 174.415 100.517C174.415 99.7924 174.415 99.148 174.415 98.4231C174.415 84.4893 174.173 73.7771 173.608 73.7771C173.124 73.7771 172.881 84.4893 172.801 98.4231C172.801 99.148 172.801 99.7924 172.801 100.517C172.801 101.242 172.801 101.886 172.801 102.611C172.881 116.545 173.124 127.257 173.608 127.257Z" fill="#1B1B1B"/>
<path d="M93.1396 102.692C92.0904 102.692 91.6869 118.076 91.6061 138.131C91.6061 139.178 91.6061 140.144 91.6061 141.111C91.6061 142.077 91.6061 143.124 91.6061 144.091C91.6061 149.084 91.6868 153.836 91.7676 158.105C91.8483 160.199 91.8483 162.213 91.8483 164.146V164.468C91.8483 164.629 91.8483 164.629 91.8483 164.871C91.8483 165.273 92.0097 165.676 92.1711 165.998C92.494 166.643 92.9782 167.045 93.4625 167.368C94.3503 168.012 95.3188 168.334 96.2066 168.495C97.9822 168.898 99.5157 168.817 100.888 168.576C102.26 168.334 103.309 167.851 104.197 167.287C105.004 166.723 105.488 165.998 105.65 165.435C105.73 164.871 105.569 164.629 105.488 164.629C105.327 164.629 105.246 164.871 105.004 165.193C104.762 165.515 104.358 165.837 103.551 166.159C102.825 166.482 101.856 166.723 100.726 166.723C99.5965 166.804 98.2244 166.723 96.8523 166.321C96.2066 166.159 95.4802 165.837 94.996 165.435C94.7538 165.273 94.5924 165.032 94.5117 164.871C94.431 164.79 94.431 164.71 94.5117 164.71C94.5117 164.71 94.5117 164.549 94.5117 164.468V164.146C94.5924 162.293 94.5924 160.28 94.6731 158.105C94.7538 153.836 94.7538 149.084 94.8346 144.091C94.8346 143.044 94.8346 142.077 94.8346 141.111C94.8346 140.144 94.8346 139.097 94.8346 138.131C94.5924 118.156 94.1082 102.692 93.1396 102.692Z" fill="#1B1B1B"/>
<path d="M179.419 70.4748C179.984 70.4748 180.145 69.2667 180.226 67.7364C180.226 67.6558 180.226 67.5753 180.226 67.4947C180.226 67.4142 180.226 67.3336 180.226 67.2531C180.226 65.7228 179.984 64.5146 179.419 64.5146C178.935 64.5146 178.693 65.7228 178.612 67.2531C178.612 67.3336 178.612 67.4142 178.612 67.4947C178.612 67.5753 178.612 67.6558 178.612 67.7364C178.693 69.2667 178.935 70.4748 179.419 70.4748Z" fill="#1B1B1B"/>
<path d="M0.0806885 149.004V156.575L102.341 190L200 134.667L198.547 127.257L100.969 180.899L0.0806885 149.004Z" fill="#1B1B1B"/>
<path d="M143.18 116.303C143.422 116.465 144.552 114.612 145.763 112.035C145.843 111.874 145.843 111.793 145.924 111.632C146.005 111.471 146.005 111.39 146.086 111.229C147.215 108.652 147.78 106.558 147.538 106.477C147.296 106.397 146.408 108.33 145.278 110.827C145.198 110.988 145.198 111.068 145.117 111.229C145.036 111.39 145.036 111.471 144.956 111.632C143.745 114.209 142.938 116.142 143.18 116.303Z" fill="#1B1B1B"/>
<path d="M145.843 117.351C146.166 117.431 146.489 116.787 146.812 115.82C146.812 115.74 146.812 115.74 146.893 115.659C146.893 115.579 146.893 115.579 146.973 115.498C147.215 114.532 147.296 113.807 147.054 113.726C146.812 113.646 146.408 114.29 146.086 115.257C146.086 115.337 146.086 115.337 146.005 115.418C146.005 115.498 146.005 115.498 145.924 115.579C145.682 116.545 145.601 117.27 145.843 117.351Z" fill="#1B1B1B"/>
<path d="M144.552 22.3103C144.794 22.1492 143.099 19.6524 140.355 16.7529C140.194 16.5918 140.113 16.4307 139.952 16.3501C139.79 16.1891 139.709 16.1085 139.548 15.9474C136.723 13.1284 134.221 11.3565 134.06 11.5981C133.898 11.8398 136.158 13.7728 138.902 16.5918C139.064 16.7529 139.144 16.8334 139.306 16.9945C139.467 17.1556 139.548 17.2361 139.709 17.3972C142.373 20.1356 144.31 22.4714 144.552 22.3103Z" fill="#1B1B1B"/>
<path d="M134.705 17.1555C134.948 16.9944 134.705 16.4306 134.302 15.7057L134.221 15.6251L134.14 15.5446C133.656 14.9003 133.253 14.417 132.93 14.5781C132.688 14.7392 132.93 15.303 133.333 16.0279L133.414 16.1084L133.495 16.1889C133.979 16.9138 134.463 17.3165 134.705 17.1555Z" fill="#1B1B1B"/>
<path d="M133.011 0.241545C133.011 -8.28194e-05 132.042 -0.0806254 130.508 0.241545C128.975 0.644258 127.038 1.53023 125.02 2.81891C124.778 2.97999 124.617 3.06054 124.455 3.22162C124.294 3.38271 124.052 3.46325 123.89 3.62433C121.873 4.91302 120.178 5.87953 118.806 6.52387C117.514 7.08767 116.626 7.40984 116.707 7.65146C116.707 7.89309 117.676 7.97364 119.209 7.57092C120.743 7.16821 122.68 6.2017 124.697 4.99356C124.939 4.83247 125.101 4.75193 125.262 4.59085C125.424 4.42976 125.666 4.34922 125.827 4.18813C127.764 2.89945 129.54 1.93294 130.912 1.36914C132.203 0.724801 133.091 0.483173 133.011 0.241545Z" fill="#1B1B1B"/>
</g>
<defs>
<clipPath id="clip0_201_1356">
<rect width="200" height="190" fill="white"/>
</clipPath>
</defs>
</svg>
