<svg width="225" height="147" viewBox="0 0 225 147" fill="none" xmlns="http://www.w3.org/2000/svg">
<g clip-path="url(#clip0_201_3596)">
<path d="M197.902 72.892C197.727 72.892 197.29 74.1951 196.591 76.8884C195.892 79.4948 194.843 83.4044 193.619 88.4434C191.171 98.5214 187.762 113.378 184.178 131.796C183.829 133.708 182.343 135.445 180.42 135.793C179.982 135.88 179.458 135.88 179.021 135.88C178.846 135.88 178.409 135.793 178.147 135.706L177.185 135.532C175.962 135.271 174.65 135.098 173.427 134.837C168.357 133.881 163.024 132.926 157.517 131.97C146.503 129.972 134.615 127.887 122.115 125.628C97.1154 121.197 69.4056 116.245 40.0349 111.032C37.0629 110.511 34.0909 109.989 31.2063 109.468L29.021 109.121L28.4965 109.034L28.2342 108.947L28.0594 108.86C27.7972 108.773 27.5349 108.686 27.3601 108.599C26.486 108.165 25.6993 107.383 25.2622 106.341C25.0874 105.819 24.9126 105.298 24.9126 104.777C24.9126 104.516 24.9126 104.255 24.9126 103.908L25 103.474L25.0874 102.952C25.3496 101.475 25.6993 100.085 25.9615 98.6083C26.5734 95.7412 27.1853 92.7873 27.7098 89.9203C33.7412 60.9895 40.2098 33.7962 46.6783 9.46997C46.8531 8.68805 47.1154 7.90614 47.2902 7.2111L47.465 6.68983L47.6398 6.25543C47.7273 5.99479 47.9021 5.73415 47.9895 5.47351C48.6014 4.43096 49.5629 3.64905 50.6119 3.30153C51.1363 3.12777 51.7482 3.12777 52.2727 3.12777C52.4475 3.12777 52.5349 3.21465 52.7098 3.21465C52.7972 3.21465 53.0594 3.30153 53.2343 3.38841L54.3706 3.64905C55.8566 4.08344 57.3426 4.43096 58.7412 4.86536C64.5105 6.42919 70.1923 7.90614 75.6119 9.29621C86.451 12.0764 96.5909 14.5959 105.769 16.8547C124.213 21.2856 139.073 24.587 149.301 26.759C154.458 27.8015 158.392 28.5834 161.101 29.1047C163.811 29.626 165.21 29.7998 165.297 29.626C165.297 29.5391 163.986 29.1047 161.276 28.3228C158.654 27.6278 154.72 26.5852 149.65 25.3689C139.51 22.8494 124.738 19.2005 106.381 14.509C97.2028 12.1632 87.1503 9.55685 76.3112 6.60295C70.8042 4.95224 65.2098 3.47529 59.4405 1.91146C57.9545 1.47706 56.5559 1.12954 55.0699 0.695145L53.9335 0.347627C53.7587 0.260747 53.5839 0.260747 53.3217 0.173868C53.0594 0.0869885 52.8846 0.0869885 52.6224 0.000109087C51.6608 -0.0867704 50.6993 0.000109081 49.7377 0.260747C47.8147 0.782024 46.3287 2.1721 45.3671 3.8228C45.1049 4.2572 44.9301 4.6916 44.7552 5.126L44.493 5.82103L44.3182 6.42919C44.1433 7.2111 43.8811 7.90614 43.7063 8.68805C37.1503 33.0143 30.507 60.2944 24.3881 89.3991C23.7762 92.353 23.1643 95.22 22.6398 98.1739C22.3776 99.6508 22.028 101.041 21.7657 102.518L21.6783 103.039L21.5909 103.734C21.5035 104.169 21.5035 104.603 21.5035 105.124C21.5035 106.08 21.7657 106.949 22.028 107.817C22.7273 109.555 24.0384 111.119 25.7867 111.901C26.2238 112.075 26.6608 112.248 27.1853 112.335L27.5349 112.422L27.7972 112.509L28.3217 112.596L30.5944 112.943C33.479 113.465 36.451 113.986 39.4231 114.507C68.7937 119.633 96.5909 124.411 121.591 128.755C134.091 130.927 145.979 132.926 156.993 134.837C162.5 135.793 167.832 136.661 172.989 137.53C174.301 137.704 175.524 137.965 176.748 138.138L177.71 138.312C178.059 138.399 178.322 138.399 178.671 138.486C179.458 138.573 180.245 138.573 180.944 138.399C184.003 137.704 186.014 135.098 186.538 132.404C189.86 113.812 192.832 99.0427 194.93 88.8778C195.979 83.7519 196.766 79.8423 197.29 77.1491C197.815 74.3689 198.077 72.9788 197.902 72.892Z" fill="#231B1B"/>
<path d="M187.937 72.7182C187.675 72.6313 186.276 77.3228 184.091 85.9239C183.042 90.2678 181.731 95.5675 180.42 101.736C179.72 104.864 179.021 108.165 178.322 111.727C177.972 113.465 177.622 115.289 177.185 117.2C177.01 118.156 176.836 119.112 176.661 120.067C176.486 120.849 176.224 121.544 175.612 122.066C175.087 122.587 174.388 123.021 173.689 123.195C173.339 123.282 172.902 123.282 172.552 123.282C172.203 123.282 171.591 123.108 171.154 123.021C169.056 122.674 166.958 122.239 164.773 121.805C160.402 121.023 155.857 120.154 151.224 119.286C141.783 117.548 131.731 115.724 121.066 113.812C99.7378 109.989 76.1364 105.732 51.1364 101.302C48.6014 100.867 46.0664 100.433 43.6189 99.9983C42.3951 99.7377 41.1713 99.5639 39.8601 99.3033C39.5105 99.2164 39.3357 99.2164 39.1608 99.1295C38.986 99.0427 38.8112 98.9558 38.549 98.8689C38.1993 98.6952 37.8497 98.4345 37.5874 98.087C37.0629 97.4788 36.7133 96.61 36.8007 95.7412C36.8007 95.4806 36.8007 95.3069 36.8881 95.0462L37.0629 94.0905L37.4126 92.2661C37.9371 89.8334 38.3741 87.3139 38.8986 84.7944C41.4336 72.4576 44.1434 60.4682 46.9406 49.0001C48.3392 43.2661 49.7378 37.6189 51.1364 32.1455C51.8357 29.4522 52.535 26.6721 53.2343 24.0657C53.5839 22.7625 53.9336 21.3724 54.2832 20.0693C54.458 19.3742 54.6329 18.7661 54.8077 18.071C54.9825 17.4629 55.1573 16.681 55.3322 16.3334C55.6818 15.4646 56.3811 14.7696 57.2552 14.4221C57.6923 14.2483 58.1294 14.1615 58.6538 14.1615C59.0909 14.1615 59.528 14.2483 60.2273 14.4221C62.7622 15.1171 65.2972 15.7253 67.7448 16.4203C72.7273 17.7235 77.535 18.9398 82.1678 20.0693C91.4336 22.415 100.087 24.5001 107.955 26.3246C123.689 30.0604 136.364 32.7537 145.105 34.5781C153.846 36.3157 158.654 37.1845 158.741 36.837C158.741 36.7501 157.605 36.3157 155.332 35.7076C153.059 35.0994 149.738 34.2306 145.367 33.1881C136.713 31.0161 124.126 27.8884 108.479 23.9788C100.699 21.9806 92.0455 19.8086 82.8671 17.376C78.2343 16.1597 73.514 14.8565 68.5315 13.5533C66.0839 12.8583 63.549 12.2501 61.014 11.5551L60.5769 11.4682C60.4021 11.4682 60.2273 11.3813 60.0524 11.2944C59.4406 11.3813 59.0035 11.2944 58.5664 11.2944C57.6923 11.2944 56.8182 11.4682 56.0315 11.7288C54.458 12.337 53.0594 13.6402 52.3601 15.2909C52.0105 16.1597 51.9231 16.7678 51.6608 17.4629C51.486 18.1579 51.3112 18.7661 51.1364 19.4611C50.7867 20.7643 50.4371 22.0675 50.0874 23.4576C49.3881 26.1508 48.6888 28.8441 47.9021 31.5373C46.4161 37.0107 45.0175 42.6579 43.6189 48.392C40.8217 59.86 38.0245 71.8494 35.4895 84.2732C34.965 86.7927 34.4406 89.2253 34.0035 91.7448L33.6538 93.5693L33.479 94.5249C33.3916 94.8725 33.3042 95.3068 33.3042 95.7412C33.2168 97.392 33.8287 99.0427 34.965 100.346C35.4895 100.954 36.1888 101.562 36.8881 101.91C37.2378 102.083 37.6748 102.257 38.0245 102.431C38.3741 102.518 38.8986 102.605 39.1608 102.692C40.3846 102.952 41.6084 103.126 42.9196 103.387C45.4545 103.821 47.9021 104.255 50.4371 104.69C75.5245 109.121 99.1259 113.204 120.455 116.94C131.119 118.764 141.171 120.502 150.612 122.153C155.332 122.935 159.878 123.716 164.248 124.498C166.434 124.846 168.531 125.193 170.629 125.628C171.154 125.715 171.591 125.802 172.29 125.888C172.902 125.888 173.601 125.888 174.213 125.715C175.437 125.367 176.573 124.759 177.448 123.803C178.322 122.935 178.846 121.718 179.021 120.589C179.196 119.633 179.371 118.677 179.545 117.722C179.895 115.81 180.245 113.986 180.507 112.248C181.206 108.686 181.818 105.385 182.343 102.257C183.566 96.0888 184.615 90.7022 185.49 86.3583C186.364 82.0143 187.063 78.626 187.5 76.3671C187.85 73.9345 188.024 72.7182 187.937 72.7182Z" fill="#231B1B"/>
<path d="M8.2168 39.9646C58.042 39.5302 107.955 37.7927 157.692 34.4912C160.839 34.3175 163.636 36.6632 163.811 39.7909C165.997 69.7643 167.045 106.775 166.958 136.748C166.958 139.963 164.248 142.135 161.014 142.482C109.266 147.521 57.9546 144.654 6.99303 143.699C3.84617 143.612 1.31121 141.005 1.31121 137.878C1.66086 114.333 2.18533 79.7554 0.874146 56.2111" fill="white"/>
<path d="M0.874126 56.211C0.699301 56.211 0.699301 57.7749 0.699301 60.8157C0.699301 63.8564 0.699301 68.3742 0.786713 74.1082C0.786713 85.6632 0.699301 102.518 0.262238 123.543C0.174825 126.149 0.174825 128.842 0.0874126 131.622C0.0874126 133.012 0 134.403 0 135.793C0 136.488 0 137.183 0 137.965C0 138.833 0.174825 139.702 0.437063 140.571C1.04895 142.222 2.36014 143.612 4.02098 144.394C4.80769 144.741 5.76923 145.002 6.64336 145.089C7.51748 145.089 8.12937 145.176 8.91608 145.176C11.8881 145.262 14.9476 145.349 18.0944 145.436C30.5944 145.784 43.9685 146.131 58.1294 146.566C72.2902 146.913 87.2378 147.174 102.797 147.087C118.357 147 134.528 146.392 151.224 145.176C154.545 144.915 157.867 144.567 161.189 144.307C163.199 144.133 165.122 143.264 166.608 141.7C167.308 140.918 167.92 139.963 168.182 138.92C168.357 138.399 168.444 137.878 168.444 137.356V136.922V136.575V135.966C168.444 129.364 168.444 122.848 168.357 116.158C168.182 99.5639 167.657 83.4912 166.958 68.1135C166.608 60.3813 166.171 52.8227 165.647 45.438C165.559 43.6135 165.385 41.7891 165.297 39.9646C165.21 37.7057 163.899 35.4469 161.888 34.2305C160.927 33.6224 159.79 33.188 158.654 33.1011C158.392 33.1011 158.042 33.0142 157.78 33.1011C157.43 33.1011 157.255 33.1011 156.993 33.1011L155.682 33.188C153.934 33.2749 152.098 33.4486 150.35 33.5355C122.29 35.2731 97.028 36.4894 75.9615 37.3582C54.8951 38.227 37.9371 38.6614 26.3112 39.0958C20.4545 39.2696 15.9965 39.4433 12.9371 39.6171C9.87762 39.7908 8.3042 39.8777 8.3042 40.0515C8.3042 40.1383 9.87762 40.3121 12.9371 40.399C15.9965 40.4859 20.542 40.5727 26.3112 40.5727C38.0245 40.5727 54.9825 40.399 76.049 39.8777C97.2028 39.2696 122.465 38.3139 150.699 36.6632C152.448 36.5763 154.283 36.4894 156.031 36.3157C156.906 36.3157 157.955 36.1419 158.479 36.2288C159.178 36.3157 159.79 36.4894 160.315 36.8369C161.451 37.532 162.15 38.7483 162.238 40.1383C162.325 41.9628 162.5 43.7873 162.587 45.6118C163.024 52.9965 163.462 60.555 163.811 68.2004C164.51 83.5781 164.948 99.6508 165.122 116.158C165.21 122.848 165.21 129.364 165.21 135.879V136.488V136.748V136.922C165.21 137.183 165.122 137.443 165.035 137.791C164.86 138.312 164.598 138.833 164.161 139.268C163.374 140.137 162.15 140.658 160.839 140.832C157.517 141.092 154.283 141.44 150.962 141.7C134.441 142.917 118.269 143.525 102.797 143.699C87.3252 143.872 72.3776 143.612 58.2168 143.351C44.0559 143.09 30.6818 142.743 18.1818 142.482C15.035 142.395 11.9755 142.395 9.0035 142.309C8.3042 142.309 7.43007 142.309 6.81818 142.222C6.20629 142.222 5.68182 142.048 5.15734 141.787C4.10839 141.353 3.32168 140.397 2.88462 139.442C2.70979 139.007 2.62238 138.486 2.62238 137.965C2.62238 137.27 2.62238 136.575 2.62238 135.879C2.62238 134.489 2.62238 133.099 2.62238 131.709C2.62238 128.929 2.62238 126.236 2.70979 123.629C2.88462 102.605 2.62238 85.7501 2.18531 74.1951C2.01049 68.3742 1.74825 63.8564 1.48601 60.8157C1.22378 57.7749 1.04895 56.211 0.874126 56.211Z" fill="#231B1B"/>
<path d="M197.465 64.5514C210.596 64.5514 221.241 54.3214 221.241 41.7021C221.241 29.0828 210.596 18.8528 197.465 18.8528C184.334 18.8528 173.689 29.0828 173.689 41.7021C173.689 54.3214 184.334 64.5514 197.465 64.5514Z" fill="#E2E2E2"/>
<path d="M208.129 15.0301C208.217 14.9432 207.78 14.5957 206.993 14.1613C206.206 13.7269 204.983 13.1188 203.234 12.6844C201.486 12.25 199.301 11.9025 196.766 12.0762C194.231 12.25 191.259 12.7712 188.287 14.1613C185.315 15.5514 182.343 17.6365 179.72 20.4166C177.098 23.1968 174.913 26.7588 173.514 30.929C172.028 35.0124 171.591 39.7908 172.378 44.4822C172.815 46.828 173.514 49.2606 174.65 51.4326L175.087 52.3014C175.262 52.562 175.437 52.8227 175.612 53.0833C175.962 53.6046 176.224 54.2127 176.661 54.734C177.011 55.2553 177.448 55.7766 177.797 56.2978C178.147 56.8191 178.671 57.2535 179.108 57.7748C179.808 58.5567 180.594 59.2517 181.381 59.9468C182.168 60.6418 183.042 61.1631 183.829 61.8581C185.577 62.9876 187.413 63.9432 189.336 64.6383C194.231 66.4627 199.476 66.6365 204.196 65.6808C208.916 64.6383 213.199 62.3794 216.434 59.4255C218.094 57.9486 219.406 56.2978 220.629 54.6471C221.154 53.7783 221.678 52.9095 222.203 52.0408C222.378 51.6064 222.64 51.172 222.815 50.7376L223.164 50.0425L223.427 49.3475C224.825 45.6986 225.175 42.1365 225 38.922C224.825 35.7074 224.038 32.8404 223.164 30.4947C222.203 28.1489 221.154 26.3244 220.105 24.8475C218.007 21.9805 216.434 20.851 216.259 21.0248C215.997 21.1986 217.22 22.6755 218.881 25.5425C219.668 27.0195 220.542 28.8439 221.241 31.1028C221.941 33.3617 222.465 35.9681 222.552 38.922C222.552 41.8759 222.115 45.0904 220.804 48.2181L220.542 48.8262L220.28 49.4344C220.105 49.7819 219.843 50.2163 219.668 50.6507C219.231 51.4326 218.706 52.2145 218.269 52.9964C217.133 54.4734 215.997 55.9503 214.423 57.1666C211.538 59.773 207.78 61.6844 203.584 62.5532C199.388 63.3351 194.843 63.1613 190.559 61.5106C188.811 60.9025 187.238 60.0337 185.752 59.078C185.052 58.5567 184.266 58.0354 183.566 57.4273C182.867 56.8191 182.168 56.211 181.643 55.5159C181.294 55.0815 180.857 54.734 180.507 54.2127C180.157 53.7783 179.808 53.3439 179.458 52.9095C179.108 52.4752 178.846 51.9539 178.584 51.5195C178.409 51.2588 178.322 51.0851 178.147 50.8244L177.797 50.0425C176.748 48.1312 176.136 46.0461 175.699 43.961C174.913 39.7908 175.262 35.6205 176.486 31.8847C177.71 28.1489 179.633 24.9344 181.906 22.328C184.178 19.7216 186.801 17.7234 189.423 16.4202C192.045 15.117 194.668 14.422 196.941 14.1613C199.301 13.8138 201.311 13.9876 202.972 14.2482C206.294 14.5088 208.042 15.2908 208.129 15.0301Z" fill="#231B1B"/>
<path d="M199.825 26.1507C198.689 26.2376 198.689 31.1898 198.164 37.6188C198.164 37.9663 198.164 38.227 198.077 38.5745C198.077 38.922 197.99 39.1827 197.99 39.5302C197.552 45.9593 196.853 50.9114 197.99 51.172C198.951 51.4327 200.699 46.4805 201.399 39.8777C201.399 39.5302 201.486 39.1827 201.486 38.922C201.486 38.5745 201.573 38.227 201.573 37.9663C201.923 31.1898 200.874 26.0639 199.825 26.1507Z" fill="#231B1B"/>
<path d="M211.014 39.7041C211.101 38.5746 206.206 37.7058 199.738 37.1845C199.388 37.1845 199.126 37.0977 198.776 37.0977C198.427 37.0977 198.164 37.0108 197.815 37.0108C191.346 36.5764 186.364 36.6633 186.276 37.7927C186.189 38.8353 191.084 39.7041 197.552 40.3122C197.902 40.3122 198.164 40.3991 198.514 40.3991C198.864 40.3991 199.126 40.486 199.476 40.486C205.944 40.8335 210.927 40.6597 211.014 39.7041Z" fill="#231B1B"/>
<path d="M111.364 62.8139C111.626 62.9877 112.063 62.6401 112.587 62.727C112.85 62.727 113.024 62.9008 113.199 63.0745C113.199 63.1614 113.287 63.2483 113.199 63.4221C113.199 63.5958 113.112 63.8565 112.937 64.0302C112.85 64.1171 112.85 64.204 112.762 64.2909C112.675 64.3777 112.675 64.4646 112.587 64.5515L112.325 64.8121C112.325 64.8121 112.325 64.8121 112.238 64.8121C112.15 64.7253 111.888 64.4646 111.801 64.2909C111.713 64.1171 111.626 64.0302 111.538 63.8565C111.451 63.5958 111.364 63.3352 111.364 63.1614C111.538 63.0745 111.538 62.9008 111.364 62.8139C111.276 62.727 111.101 62.727 110.839 62.9877C110.577 63.1614 110.402 63.6827 110.49 64.2909C110.49 64.5515 110.577 64.899 110.752 65.1596C110.927 65.4203 111.014 65.6809 111.276 66.0284C111.626 66.4628 112.15 66.8104 112.762 66.6366C113.024 66.5497 113.287 66.376 113.549 66.2022C113.811 66.0284 113.899 65.8547 113.986 65.7678C114.073 65.6809 114.161 65.5072 114.248 65.3334C114.336 65.1596 114.423 65.0728 114.511 64.899C114.685 64.5515 114.86 64.1171 114.86 63.6827C114.86 63.2483 114.773 62.727 114.511 62.2926C113.986 61.5107 113.025 61.337 112.413 61.5976C111.801 61.7714 111.538 62.1189 111.364 62.3795C111.276 62.5533 111.276 62.727 111.364 62.8139Z" fill="#231B1B"/>
<path d="M119.493 56.2109C119.755 56.3846 120.192 56.0371 120.717 56.124C120.979 56.124 121.154 56.2978 121.329 56.4715C121.329 56.5584 121.416 56.6453 121.329 56.819C121.329 56.9928 121.241 57.2534 121.066 57.4272C120.979 57.5141 120.979 57.601 120.892 57.6878C120.804 57.7747 120.804 57.8616 120.717 57.9485L120.455 58.2091C120.455 58.2091 120.455 58.2091 120.367 58.2091C120.28 58.1222 120.017 57.8616 119.93 57.6878C119.843 57.5141 119.755 57.4272 119.668 57.2534C119.58 56.9928 119.493 56.7322 119.493 56.5584C119.58 56.4715 119.58 56.2978 119.493 56.2109C119.406 56.124 119.231 56.124 118.969 56.3846C118.706 56.5584 118.531 57.0797 118.619 57.6878C118.619 57.9485 118.706 58.296 118.881 58.5566C119.056 58.8173 119.143 59.0779 119.406 59.4254C119.755 59.8598 120.28 60.2073 120.892 60.0336C121.154 59.9467 121.416 59.7729 121.678 59.5992C121.941 59.4254 122.028 59.2517 122.115 59.1648C122.203 59.0779 122.29 58.9041 122.378 58.7304C122.465 58.5566 122.552 58.4697 122.64 58.296C122.815 57.9485 122.989 57.5141 122.989 57.0797C122.989 56.6453 122.902 56.124 122.64 55.6896C122.115 54.9077 121.154 54.7339 120.542 54.9946C119.93 55.1683 119.668 55.5158 119.493 55.7765C119.406 55.9502 119.406 56.124 119.493 56.2109Z" fill="#231B1B"/>
<path d="M129.982 54.2997C130.245 54.4735 130.682 54.126 131.206 54.2129C131.469 54.2129 131.643 54.3866 131.818 54.5604C131.818 54.6473 131.906 54.7341 131.818 54.9079C131.818 55.0817 131.731 55.3423 131.556 55.5161C131.469 55.6029 131.469 55.6898 131.381 55.7767C131.294 55.8636 131.294 55.9505 131.206 56.0373L130.944 56.298C130.944 56.298 130.944 56.298 130.857 56.298C130.769 56.2111 130.507 55.9505 130.42 55.7767C130.332 55.6029 130.245 55.5161 130.157 55.3423C130.07 55.0817 129.982 54.821 129.982 54.6473C130.07 54.5604 130.07 54.3866 129.982 54.2997C129.895 54.2129 129.72 54.2129 129.458 54.4735C129.196 54.6473 129.021 55.1685 129.108 55.7767C129.108 56.0373 129.196 56.3848 129.371 56.6455C129.545 56.9061 129.633 57.1668 129.895 57.5143C130.245 57.9487 130.769 58.2962 131.381 58.1224C131.643 58.0356 131.906 57.8618 132.168 57.688C132.43 57.5143 132.517 57.3405 132.605 57.2536C132.692 57.1668 132.78 56.993 132.867 56.8192C132.955 56.6455 133.042 56.5586 133.129 56.3849C133.304 56.0373 133.479 55.6029 133.479 55.1685C133.479 54.7341 133.392 54.2129 133.129 53.7785C132.605 52.9966 131.643 52.8228 131.031 53.0834C130.42 53.2572 130.157 53.6047 129.982 53.8653C129.895 54.0391 129.895 54.2129 129.982 54.2997Z" fill="#231B1B"/>
<path d="M140.297 58.0353C140.559 58.2091 140.996 57.8616 141.521 57.9485C141.783 57.9485 141.958 58.1222 142.133 58.296C142.133 58.3829 142.22 58.4697 142.133 58.6435C142.133 58.8173 142.045 59.0779 141.871 59.2516C141.783 59.3385 141.783 59.4254 141.696 59.5123C141.608 59.5992 141.608 59.6861 141.521 59.7729L141.259 60.0336C141.259 60.0336 141.259 60.0336 141.171 60.0336C141.084 59.9467 140.822 59.686 140.734 59.5123C140.647 59.3385 140.559 59.2517 140.472 59.0779C140.385 58.8173 140.297 58.5566 140.297 58.3829C140.472 58.296 140.472 58.1222 140.297 58.0353C140.21 57.9485 140.035 57.9485 139.773 58.2091C139.51 58.3829 139.336 58.9041 139.423 59.5123C139.423 59.7729 139.51 60.1204 139.685 60.3811C139.86 60.6417 139.948 60.9024 140.21 61.2499C140.559 61.6843 141.084 62.0318 141.696 61.858C141.958 61.7712 142.22 61.5974 142.483 61.4236C142.745 61.2499 142.832 61.0761 142.92 60.9892C143.007 60.9024 143.094 60.7286 143.182 60.5548C143.269 60.3811 143.357 60.2942 143.444 60.1204C143.619 59.7729 143.794 59.3385 143.794 58.9041C143.794 58.4697 143.706 57.9485 143.444 57.5141C142.92 56.7321 141.958 56.5584 141.346 56.819C140.734 56.9928 140.472 57.3403 140.297 57.6009C140.21 57.7747 140.21 58.0353 140.297 58.0353Z" fill="#231B1B"/>
<path d="M143.357 66.8972C143.619 67.0709 144.056 66.7234 144.58 66.8103C144.843 66.8103 145.017 66.984 145.192 67.1578C145.192 67.2447 145.28 67.3316 145.192 67.5053C145.192 67.6791 145.105 67.9397 144.93 68.1135C144.843 68.2004 144.843 68.2872 144.755 68.3741C144.668 68.461 144.668 68.5479 144.58 68.6347L144.318 68.8954C144.318 68.8954 144.318 68.8954 144.231 68.8954C144.143 68.8085 143.881 68.5479 143.794 68.3741C143.706 68.2003 143.619 68.1135 143.531 67.9397C143.444 67.6791 143.357 67.4184 143.357 67.2447C143.531 67.1578 143.444 66.984 143.357 66.8972C143.269 66.8103 143.094 66.8103 142.832 67.0709C142.57 67.2447 142.395 67.7659 142.483 68.3741C142.483 68.6347 142.57 68.9823 142.745 69.2429C142.92 69.5035 143.007 69.7642 143.269 70.1117C143.619 70.5461 144.143 70.8936 144.755 70.7199C145.017 70.633 145.28 70.4592 145.542 70.2855C145.804 70.1117 145.892 69.9379 145.979 69.8511C146.066 69.7642 146.154 69.5904 146.241 69.4167C146.329 69.2429 146.416 69.156 146.504 68.9823C146.678 68.6347 146.853 68.2003 146.853 67.766C146.853 67.3316 146.766 66.8103 146.504 66.3759C145.979 65.594 145.017 65.4202 144.406 65.6808C143.794 65.8546 143.531 66.2021 143.357 66.4628C143.269 66.6365 143.269 66.8103 143.357 66.8972Z" fill="#231B1B"/>
<path d="M143.357 76.7145C143.619 76.8883 144.056 76.5408 144.58 76.6277C144.843 76.6277 145.017 76.8014 145.192 76.9752C145.192 77.0621 145.28 77.1489 145.192 77.3227C145.192 77.4965 145.105 77.7571 144.93 77.9308C144.843 78.0177 144.843 78.1046 144.755 78.1915C144.668 78.2784 144.668 78.3653 144.58 78.4521L144.318 78.7128C144.318 78.7128 144.318 78.7128 144.231 78.7128C144.143 78.6259 143.881 78.3652 143.794 78.1915C143.706 78.0177 143.619 77.9309 143.531 77.7571C143.444 77.4965 143.357 77.2358 143.357 77.0621C143.531 76.9752 143.444 76.8014 143.357 76.7145C143.269 76.6277 143.094 76.6277 142.832 76.8883C142.57 77.0621 142.395 77.5833 142.483 78.1915C142.483 78.4521 142.57 78.7996 142.745 79.0603C142.92 79.3209 143.007 79.5816 143.269 79.9291C143.619 80.3635 144.143 80.711 144.755 80.5372C145.017 80.4504 145.28 80.2766 145.542 80.1028C145.804 79.9291 145.892 79.7553 145.979 79.6684C146.066 79.5816 146.154 79.4078 146.241 79.234C146.329 79.0603 146.416 78.9734 146.504 78.7996C146.678 78.4521 146.853 78.0177 146.853 77.5833C146.853 77.1489 146.766 76.6277 146.504 76.1933C145.979 75.4113 145.017 75.2376 144.406 75.4982C143.794 75.672 143.531 76.0195 143.357 76.2801C143.269 76.4539 143.269 76.6277 143.357 76.7145Z" fill="#231B1B"/>
<path d="M124.65 88.2695C124.913 88.4432 125.35 88.0957 125.874 88.1826C126.136 88.1826 126.311 88.3564 126.486 88.5301C126.486 88.617 126.573 88.7039 126.486 88.8776C126.486 89.0514 126.399 89.312 126.224 89.4858C126.136 89.5727 126.136 89.6595 126.049 89.7464C125.962 89.8333 125.962 89.9202 125.874 90.0071L125.612 90.2677C125.612 90.2677 125.612 90.2677 125.524 90.2677C125.437 90.1808 125.175 89.9202 125.087 89.7464C125 89.5727 124.913 89.4858 124.825 89.312C124.738 89.0514 124.65 88.7907 124.65 88.617C124.825 88.5301 124.825 88.3564 124.65 88.2695C124.563 88.1826 124.388 88.1826 124.126 88.4432C123.864 88.617 123.689 89.1383 123.776 89.7464C123.776 90.0071 123.864 90.3546 124.038 90.6152C124.213 90.8759 124.301 91.1365 124.563 91.484C124.913 91.9184 125.437 92.2659 126.049 92.0922C126.311 92.0053 126.573 91.8315 126.836 91.6578C127.098 91.484 127.185 91.3103 127.273 91.2234C127.36 91.1365 127.448 90.9627 127.535 90.789C127.622 90.6152 127.71 90.5283 127.797 90.3546C127.972 90.0071 128.147 89.5727 128.147 89.1383C128.147 88.7039 128.059 88.1826 127.797 87.7482C127.273 86.9663 126.311 86.7925 125.699 87.0532C125.087 87.2269 124.825 87.5744 124.65 87.8351C124.563 88.0088 124.563 88.1826 124.65 88.2695Z" fill="#231B1B"/>
<path d="M135.927 85.8369C136.189 86.0106 136.626 85.6631 137.15 85.75C137.413 85.75 137.587 85.9237 137.762 86.0975C137.762 86.1844 137.85 86.2713 137.762 86.445C137.762 86.6188 137.675 86.8794 137.5 87.0532C137.413 87.14 137.413 87.2269 137.325 87.3138C137.238 87.4007 137.238 87.4876 137.15 87.5744L136.888 87.8351C136.888 87.8351 136.888 87.8351 136.801 87.8351C136.713 87.7482 136.451 87.4876 136.364 87.3138C136.276 87.14 136.189 87.0532 136.101 86.8794C136.014 86.6188 135.927 86.3581 135.927 86.1844C136.014 86.0975 136.014 85.9237 135.927 85.8369C135.839 85.75 135.664 85.75 135.402 86.0106C135.14 86.1844 134.965 86.7056 135.052 87.3138C135.052 87.5744 135.14 87.922 135.315 88.1826C135.49 88.4432 135.577 88.7039 135.839 89.0514C136.189 89.4858 136.713 89.8333 137.325 89.6595C137.587 89.5727 137.85 89.3989 138.112 89.2251C138.374 89.0514 138.462 88.8776 138.549 88.7908C138.636 88.7039 138.724 88.5301 138.811 88.3564C138.899 88.1826 138.986 88.0957 139.073 87.922C139.248 87.5744 139.423 87.14 139.423 86.7057C139.423 86.2713 139.336 85.75 139.073 85.3156C138.549 84.5337 137.587 84.3599 136.976 84.6205C136.364 84.7943 136.101 85.1418 135.927 85.4025C135.839 85.5762 135.839 85.75 135.927 85.8369Z" fill="#231B1B"/>
<path d="M116.434 83.4042C116.696 83.578 117.133 83.2305 117.657 83.3174C117.92 83.3174 118.094 83.4911 118.182 83.6649C118.182 83.7518 118.269 83.8386 118.182 84.0124C118.182 84.1861 118.094 84.4468 117.92 84.6206C117.832 84.7074 117.832 84.7943 117.745 84.8812C117.657 84.9681 117.657 85.0549 117.57 85.1418L117.308 85.4025C117.308 85.4025 117.308 85.4025 117.22 85.4025C117.133 85.3156 116.871 85.0549 116.783 84.8812C116.696 84.7074 116.608 84.6205 116.521 84.4468C116.434 84.1861 116.346 83.9255 116.346 83.7518C116.608 83.6649 116.608 83.4911 116.434 83.4042C116.346 83.3174 116.171 83.3174 115.909 83.578C115.647 83.7518 115.472 84.273 115.472 84.8812C115.472 85.1418 115.559 85.4893 115.734 85.75C115.909 86.0106 115.997 86.2713 116.259 86.6188C116.608 87.0532 117.133 87.4007 117.745 87.2269C118.007 87.1401 118.269 86.9663 118.531 86.7925C118.794 86.6188 118.881 86.445 118.969 86.3581C119.056 86.2713 119.143 86.0975 119.231 85.9237C119.318 85.75 119.406 85.6631 119.493 85.4893C119.668 85.1418 119.843 84.7074 119.843 84.273C119.843 83.8386 119.755 83.3174 119.493 82.883C118.969 82.101 117.92 81.9273 117.395 82.1879C116.783 82.3617 116.521 82.7092 116.346 82.9698C116.346 83.1436 116.346 83.3174 116.434 83.4042Z" fill="#231B1B"/>
<path d="M112.325 74.8901C112.587 75.0638 113.024 74.7163 113.549 74.8032C113.811 74.8032 113.986 74.977 114.161 75.1507C114.161 75.2376 114.248 75.3245 114.161 75.4982C114.161 75.672 114.073 75.9326 113.899 76.1064C113.811 76.1933 113.811 76.2801 113.724 76.367C113.636 76.4539 113.636 76.5408 113.549 76.6277L113.287 76.8883C113.287 76.8883 113.287 76.8883 113.199 76.8883C113.112 76.8014 112.85 76.5408 112.762 76.367C112.675 76.1933 112.587 76.1064 112.5 75.9326C112.413 75.672 112.325 75.4113 112.325 75.2376C112.413 75.1507 112.413 74.977 112.325 74.8901C112.238 74.8032 112.063 74.8032 111.801 75.0638C111.538 75.2376 111.364 75.7589 111.451 76.367C111.451 76.6277 111.538 76.9752 111.713 77.2358C111.888 77.4965 111.975 77.7571 112.238 78.1046C112.587 78.539 113.112 78.8865 113.724 78.7128C113.986 78.6259 114.248 78.4521 114.51 78.2784C114.773 78.1046 114.86 77.9309 114.948 77.844C115.035 77.7571 115.122 77.5833 115.21 77.4096C115.297 77.2358 115.385 77.1489 115.472 76.9752C115.647 76.6277 115.822 76.1933 115.822 75.7589C115.822 75.3245 115.734 74.8032 115.472 74.3688C114.948 73.5869 113.986 73.4131 113.374 73.6738C112.762 73.8475 112.5 74.195 112.325 74.4557C112.238 74.6294 112.238 74.8032 112.325 74.8901Z" fill="#231B1B"/>
<path d="M8.9161 61.5976C8.30421 61.5976 8.56645 71.8493 8.39162 88.7039C8.30421 97.1312 8.12938 107.209 7.95456 118.504C7.86715 121.371 7.86715 124.238 7.77973 127.192C7.77973 127.973 7.77973 128.668 7.69232 129.45V130.58C7.69232 130.754 7.69232 131.014 7.69232 131.275C7.69232 131.536 7.77973 131.796 7.77973 132.057C8.12938 134.055 9.6154 135.879 11.4511 136.748C12.4126 137.183 13.3741 137.443 14.4231 137.443C15.2098 137.443 15.9965 137.443 16.7832 137.53C18.3567 137.53 20.0175 137.617 21.5909 137.617C24.8252 137.704 28.1469 137.791 31.4685 137.878C34.1783 137.965 36.8007 137.965 39.5105 138.051C42.1329 138.138 44.8427 138.225 47.5525 138.225C60.9266 138.573 73.6014 138.746 84.965 138.746C96.3287 138.746 106.556 138.573 115.035 138.225C119.318 138.051 123.077 137.791 126.486 137.617C129.808 137.356 132.692 137.183 135.052 136.922C139.773 136.401 142.308 136.053 142.308 135.793C142.308 135.184 131.993 135.706 115.035 135.793C106.556 135.879 96.4161 135.879 85.0525 135.706C73.6888 135.532 61.1014 135.271 47.7273 134.924C45.0175 134.837 42.3951 134.837 39.6853 134.75C37.063 134.663 34.3532 134.576 31.6434 134.576C28.3217 134.489 25 134.403 21.7657 134.403C20.1049 134.403 18.5315 134.316 16.9581 134.316C16.1713 134.316 15.3846 134.316 14.5979 134.316C14.0734 134.316 13.4616 134.142 13.0245 133.968C12.063 133.534 11.3637 132.578 11.1014 131.622C11.1014 131.536 11.014 131.362 11.014 131.275C11.014 131.188 11.014 131.014 11.014 130.84V129.711C11.014 128.929 11.014 128.234 11.014 127.452C11.014 124.498 11.1014 121.544 11.1014 118.764C11.1888 107.47 11.1014 97.305 10.9266 88.8777C10.7518 80.4504 10.4021 73.6738 10.0525 68.9823C9.52799 64.1171 9.09092 61.5107 8.9161 61.5976Z" fill="#231B1B"/>
<path d="M159.003 122.152C159.266 122.152 159.528 119.459 159.703 114.507C159.878 109.555 159.878 102.344 159.79 93.3954C159.615 84.4468 159.353 73.6737 158.741 61.6844C158.566 58.6436 158.392 55.6028 158.217 52.4752C158.129 50.9113 157.955 49.2606 157.867 47.6968C157.78 46.6542 157.43 45.5248 156.818 44.656C156.206 43.7872 155.332 43.0053 154.371 42.484C153.409 41.9628 152.36 41.7021 151.224 41.6152C150.962 41.6152 150.612 41.6152 150.437 41.6152H149.825L148.601 41.7021C146.941 41.789 145.192 41.8759 143.531 41.9628C140.122 42.1365 136.626 42.3103 133.042 42.5709C130.157 42.7447 127.36 42.8315 124.563 43.0053C121.766 43.1791 118.969 43.2659 116.084 43.4397C87.6748 44.8298 62.5874 45.6117 44.5804 46.2198C26.5734 46.828 15.6469 47.2624 15.6469 47.8706C15.6469 48.1312 18.3566 48.3049 23.3392 48.4787C28.3217 48.6525 35.5769 48.7393 44.5804 48.6525C62.5874 48.5656 87.7622 48.0443 116.171 46.7411C119.056 46.5674 121.853 46.4805 124.65 46.3067C127.448 46.133 130.245 46.0461 133.129 45.8723C136.713 45.6986 140.21 45.4379 143.619 45.2642C145.367 45.1773 147.028 45.0904 148.689 44.9167L149.913 44.8298H150.524H150.962C151.573 44.8298 152.098 45.0035 152.622 45.2642C153.147 45.5248 153.584 45.9592 153.846 46.3936C154.108 46.828 154.371 47.3493 154.371 47.8706C154.458 49.4344 154.633 51.0851 154.72 52.6489C154.983 55.7766 155.157 58.9042 155.332 61.8581C156.119 73.8475 156.643 84.5337 156.993 93.4823C157.43 102.431 157.692 109.642 157.955 114.594C158.479 119.459 158.654 122.152 159.003 122.152Z" fill="#231B1B"/>
<path d="M85.2273 131.796C85.7518 131.535 84.0909 126.67 79.9825 119.112C77.972 115.376 75.2622 110.945 71.6783 106.427C69.8427 104.168 67.8322 101.823 65.3846 99.6507C62.9371 97.5656 60.0525 95.4805 56.4685 94.4379C56.1189 94.2642 55.7692 94.2642 55.3322 94.1773C54.9825 94.0904 54.6329 94.0035 54.1958 94.0035C53.4091 94.0035 52.7098 93.8298 51.9231 93.9167C51.5734 93.9167 51.1364 93.9167 50.7867 94.0035L49.7378 94.1773C49.0385 94.2642 48.3392 94.5248 47.6399 94.6986C44.1434 95.828 41.2587 97.5656 38.6364 99.4769C36.014 101.388 33.7413 103.387 31.6434 105.385C27.4476 109.381 24.1259 113.291 21.5035 116.679C16.2587 123.456 13.7238 127.973 14.2483 128.234C14.6853 128.495 17.8322 124.498 23.4266 118.156C26.2238 115.028 29.6329 111.293 33.7413 107.557C35.8392 105.645 38.0245 103.821 40.5594 102.083C43.007 100.346 45.8042 98.7819 48.6888 97.9131C49.3007 97.7394 49.8252 97.5656 50.4371 97.4787L51.3112 97.305L52.1853 97.2181C52.7972 97.1312 53.3217 97.2181 53.9336 97.305C54.1958 97.305 54.458 97.3918 54.8077 97.4787C55.0699 97.5656 55.4196 97.5656 55.6818 97.6525C58.5664 98.4344 61.1014 100.259 63.3741 102.17C65.6469 104.082 67.6574 106.254 69.4056 108.426C72.9895 112.683 75.6993 116.853 77.972 120.415C82.3427 127.452 84.7028 132.057 85.2273 131.796Z" fill="#231B1B"/>
<path d="M118.182 127.018C118.706 126.757 117.832 124.064 115.472 120.067C114.336 118.069 112.85 115.723 110.839 113.291C108.829 110.858 106.469 108.252 102.972 106.254C102.273 105.906 101.486 105.559 100.699 105.298C99.9126 105.037 99.0384 104.863 98.1643 104.777C95.8916 104.69 94.1433 105.211 92.3951 105.819C91.958 105.993 91.521 106.167 91.1713 106.254C90.8217 106.427 90.3846 106.601 90.0349 106.775C89.2482 107.122 88.5489 107.557 87.8496 107.904C85.0524 109.468 82.8671 111.119 81.0314 112.596C77.4475 115.55 75.6993 117.809 76.0489 118.156C76.3986 118.504 78.6713 116.94 82.43 114.507C84.3531 113.291 86.6258 111.901 89.2482 110.598C89.9475 110.25 90.5594 109.902 91.2587 109.642C91.6084 109.468 91.958 109.381 92.3077 109.207C92.6573 109.121 93.007 108.947 93.444 108.86L93.9685 108.686L94.493 108.512C94.8426 108.426 95.2797 108.339 95.6293 108.252C95.979 108.165 96.4161 108.165 96.7657 108.078C96.9405 108.078 97.1154 108.078 97.2902 108.078C97.465 108.078 97.6398 108.078 97.8147 108.078C98.3391 108.165 98.951 108.252 99.4755 108.426C100 108.599 100.612 108.86 101.136 109.121C103.934 110.598 106.294 113.03 108.304 115.202C110.315 117.374 111.888 119.546 113.287 121.284C116.171 124.933 117.745 127.191 118.182 127.018Z" fill="#231B1B"/>
<path d="M43.7063 110.163C43.444 109.642 40.0349 111.032 36.5384 114.246C36.3636 114.42 36.1888 114.594 36.014 114.768C35.8391 114.941 35.6643 115.115 35.4895 115.289C32.1678 118.677 30.6818 122.065 31.2063 122.326C31.7308 122.587 33.479 119.633 36.7133 116.418C36.8881 116.245 37.0629 116.071 37.1503 115.984C37.3252 115.81 37.5 115.723 37.6748 115.55C40.9965 112.422 43.9685 110.684 43.7063 110.163Z" fill="#231B1B"/>
<path d="M73.6014 124.672C73.8636 124.672 74.0385 124.064 74.0385 123.195C73.951 122.24 73.6888 121.023 72.9021 119.72C72.8147 119.633 72.7273 119.459 72.6399 119.372L72.3776 119.025C71.5035 117.809 70.4545 117.027 69.6678 116.592C68.7937 116.158 68.2692 116.158 68.0944 116.332C67.8322 116.853 69.5804 117.896 70.979 119.981L71.1538 120.328L71.3287 120.676C72.8147 122.674 73.0769 124.672 73.6014 124.672Z" fill="#231B1B"/>
<path d="M104.983 121.544C105.42 121.284 104.633 119.459 102.797 117.809L102.535 117.548L102.273 117.287C100.262 115.724 98.3392 115.289 98.1643 115.81C97.9895 116.332 99.4755 117.201 101.224 118.591L101.486 118.764L101.748 119.025C103.409 120.502 104.545 121.805 104.983 121.544Z" fill="#231B1B"/>
<path d="M129.633 85.6631C135.764 85.6631 140.734 79.7507 140.734 72.4574C140.734 65.1641 135.764 59.2517 129.633 59.2517C123.502 59.2517 118.531 65.1641 118.531 72.4574C118.531 79.7507 123.502 85.6631 129.633 85.6631Z" fill="#0A0101"/>
</g>
<defs>
<clipPath id="clip0_201_3596">
<rect width="225" height="147" fill="white"/>
</clipPath>
</defs>
</svg>
