<svg width="253" height="228" viewBox="0 0 253 228" fill="none" xmlns="http://www.w3.org/2000/svg">
<g clip-path="url(#clip0_201_1836)">
<path d="M109.343 65.0462C113.608 61.3735 127.857 56.7342 133.77 56.6376C147.438 56.251 158.489 66.9792 158.489 80.6071C158.489 104.673 133.092 128.353 126.597 151.549L122.72 152.999" fill="#1B1B1B"/>
<path d="M122.72 152.999C113.705 128.933 98.0012 111.052 98.0012 86.1162C98.0012 72.4884 109.052 61.1802 122.72 60.7936C136.387 60.407 147.438 71.1352 147.438 84.7631C147.438 108.829 129.311 129.899 122.72 152.999Z" fill="white"/>
<path d="M122.72 152.999C122.816 152.999 123.107 152.419 123.495 151.162C123.689 150.486 123.98 149.713 124.367 148.843C124.755 147.973 125.143 146.91 125.628 145.75C127.566 141.014 130.668 134.442 134.933 126.226C136.969 122.167 139.295 117.625 141.525 112.599C143.657 107.573 145.79 102.064 147.147 95.9747C147.341 95.2015 147.535 94.4282 147.632 93.655C147.729 92.8818 147.826 92.1086 147.923 91.2388C148.02 90.4656 148.213 89.6923 148.213 88.8225C148.213 88.0493 148.31 87.1794 148.31 86.4062C148.504 83.1201 148.116 79.6406 146.856 76.2578C145.693 72.9717 143.754 69.8789 141.137 67.2693C138.617 64.6597 135.321 62.63 131.831 61.3736C128.923 60.407 125.918 59.8271 123.01 59.9238C120.005 60.0204 117.097 60.6004 114.189 61.6635C107.113 64.3697 101.588 69.9755 99.0674 76.5478C97.8073 79.8339 97.1288 83.2167 97.2257 86.5995C97.3226 88.2426 97.3226 89.8856 97.5165 91.4321C97.7104 92.9785 97.8073 94.6215 98.0981 96.168C99.1644 102.354 101.006 107.959 103.139 112.985C105.271 118.011 107.501 122.554 109.633 126.71C113.898 134.828 117.291 141.401 119.424 146.04C120.005 147.2 120.393 148.166 120.878 149.133C121.266 150.003 121.556 150.776 121.847 151.356C122.332 152.419 122.72 152.999 122.72 152.999C122.816 152.999 122.623 152.322 122.138 151.066C121.944 150.389 121.653 149.616 121.266 148.746C120.878 147.876 120.49 146.813 120.005 145.653C118.067 140.917 114.771 134.249 110.7 126.033C108.664 121.877 106.434 117.431 104.399 112.405C102.363 107.379 100.618 101.87 99.6491 95.878C99.3583 94.4282 99.2613 92.8818 99.0674 91.3354C98.9705 89.789 98.9705 88.2426 98.8736 86.5995C98.8736 83.41 99.4552 80.2205 100.618 77.2243C103.042 71.1353 108.179 65.9162 114.771 63.4032C117.388 62.4367 120.199 61.8568 122.913 61.8568C125.725 61.7602 128.439 62.2434 131.153 63.2099C134.449 64.3697 137.454 66.2061 139.78 68.6224C142.203 71.0387 143.948 73.9382 145.112 76.9344C146.275 80.0272 146.662 83.2167 146.469 86.4062C146.469 87.1794 146.372 87.9526 146.372 88.8225C146.372 89.5957 146.178 90.3689 146.081 91.1421C145.984 91.9153 145.887 92.6885 145.79 93.4617C145.693 94.2349 145.499 95.0082 145.305 95.6847C144.045 101.677 142.107 107.09 139.974 112.115C137.841 117.141 135.612 121.587 133.576 125.743C129.505 133.959 126.5 140.724 124.755 145.557C124.367 146.717 123.98 147.876 123.689 148.746C123.398 149.713 123.204 150.486 123.01 151.162C122.816 152.322 122.72 152.999 122.72 152.999Z" fill="#1B1B1B"/>
<path d="M114.965 80.6072C112.929 82.9268 111.669 85.923 111.669 89.0158C111.669 95.1048 116.613 99.9374 122.816 99.7441C128.923 99.5508 133.964 94.5249 133.964 88.3392C133.964 82.2502 129.02 76.5478 122.816 76.7411C121.362 76.7411 119.908 77.1277 118.648 77.8043" fill="white"/>
<path d="M118.551 77.9008C118.648 78.0941 119.424 77.7075 120.878 77.5142C122.332 77.3209 124.464 77.2243 126.791 78.3841C129.117 79.4472 131.444 81.8635 132.413 85.1497C132.995 86.7927 133.092 88.6291 132.704 90.4655C132.316 92.3018 131.444 94.0416 130.087 95.4913C129.602 96.0712 128.923 96.5545 128.342 97.0377C127.663 97.4244 126.985 97.9076 126.209 98.1976C124.367 98.9708 122.429 99.0674 120.587 98.7775C118.745 98.3909 117.097 97.6177 115.837 96.5545C114.577 95.4913 113.608 94.1382 113.026 92.6884C112.444 91.3353 112.251 89.8856 112.251 88.6291C112.251 86.0195 113.123 83.9898 113.801 82.7334C114.48 81.4769 114.965 80.8004 114.868 80.6071C114.771 80.5104 114.092 80.9937 113.123 82.2501C112.251 83.5066 111.087 85.6329 110.893 88.5324C110.796 89.9822 110.99 91.6253 111.572 93.2684C112.154 94.9114 113.22 96.5545 114.674 97.811C116.128 99.1641 118.067 100.131 120.199 100.517C122.332 100.904 124.658 100.71 126.888 99.8406C127.76 99.5507 128.536 99.0674 129.311 98.4875C130.087 97.9076 130.765 97.3277 131.444 96.6511C132.995 94.9114 134.061 92.7851 134.449 90.6588C134.836 88.5325 134.642 86.4061 133.964 84.5698C132.704 80.8004 129.99 78.1908 127.275 77.1276C124.561 75.9678 122.041 76.2578 120.587 76.741C119.23 77.2243 118.551 77.7075 118.551 77.9008Z" fill="#1B1B1B"/>
<path d="M126.759 99.146C132.248 97.1701 135.15 91.2946 133.241 86.0228C131.332 80.7509 125.335 78.079 119.846 80.0549C114.358 82.0308 111.456 87.9063 113.365 93.1781C115.274 98.45 121.271 101.122 126.759 99.146Z" fill="#D3D3D3"/>
<path d="M126.791 85.0529C125.725 84.3763 124.077 86.2127 122.138 88.629L121.847 89.0156L121.556 89.4022C119.715 91.8184 118.261 93.7515 119.133 94.718C119.908 95.5878 122.235 94.3314 124.464 91.7218L124.755 91.3352L125.046 90.8519C126.985 88.1457 127.76 85.5361 126.791 85.0529Z" fill="#1B1B1B"/>
<path d="M127.469 93.5582C128.245 92.5917 126.694 90.6587 124.271 88.629C124.174 88.5324 123.98 88.4357 123.883 88.3391C123.786 88.2424 123.689 88.1458 123.495 88.0491C120.975 86.1161 118.745 85.0529 117.97 86.0194C117.194 86.8893 118.745 88.919 121.169 90.9486C121.266 91.0453 121.459 91.1419 121.556 91.2386C121.653 91.3352 121.75 91.4319 121.944 91.5285C124.464 93.3649 126.791 94.4281 127.469 93.5582Z" fill="#1B1B1B"/>
<path d="M213.886 117.86C214.176 118.054 214.467 118.054 214.855 117.957C215.243 117.86 215.727 117.764 216.212 117.86C216.6 117.957 216.891 118.15 216.987 118.44C216.987 118.537 216.987 118.634 216.987 118.924C216.891 119.214 216.794 119.6 216.6 119.987C216.503 120.18 216.406 120.277 216.309 120.47C216.212 120.663 216.115 120.76 216.018 120.953L215.921 121.147L215.824 121.243L215.727 121.147C215.63 120.953 215.436 120.857 215.34 120.663C215.146 120.373 214.952 120.18 214.855 119.987C214.564 119.6 214.467 119.214 214.467 118.827C214.176 118.44 214.079 118.054 213.886 117.86C213.692 117.667 213.304 117.667 212.819 118.054C212.335 118.44 211.85 119.407 212.044 120.47C212.044 121.05 212.238 121.63 212.528 122.21C212.722 122.5 212.819 122.693 212.916 122.983L213.013 123.176L213.207 123.466C213.304 123.659 213.498 123.853 213.692 124.046C214.37 124.819 215.34 125.303 216.406 125.109C216.891 125.013 217.375 124.819 217.86 124.433C218.054 124.239 218.345 124.046 218.538 123.853L218.829 123.563L219.023 123.37C219.217 123.176 219.411 122.886 219.605 122.596C219.799 122.306 219.895 122.016 220.089 121.726C220.477 120.953 220.671 120.18 220.768 119.31C220.865 118.44 220.574 117.377 220.089 116.604C219.023 115.058 217.084 114.768 216.018 115.154C214.855 115.541 214.37 116.217 214.079 116.701C213.595 117.28 213.595 117.667 213.886 117.86Z" fill="#1B1B1B"/>
<path d="M40.8855 63.8602C41.1763 64.0535 41.4671 64.0535 41.8549 63.9568C42.2426 63.8602 42.7273 63.7635 43.212 63.8602C43.5997 63.9568 43.8905 64.1501 43.9874 64.4401C43.9874 64.5367 43.9874 64.6334 43.9874 64.9233C43.8905 65.2133 43.7936 65.5999 43.5997 65.9865C43.5028 66.1798 43.4058 66.2764 43.3089 66.4697C43.212 66.663 43.115 66.7597 43.0181 66.953L42.9212 67.1463L42.8242 67.2429L42.7273 67.1463C42.6304 66.953 42.4365 66.8563 42.3396 66.663C42.1457 66.3731 41.9518 66.1798 41.8549 65.9865C41.5641 65.5999 41.4671 65.2133 41.4671 64.8267C41.1763 64.4401 41.1763 64.0535 40.8855 63.8602C40.6917 63.6669 40.3039 63.6669 39.8193 64.0535C39.3346 64.4401 38.8499 65.4066 39.0438 66.4697C39.0438 67.0496 39.2376 67.6295 39.5284 68.2095C39.7223 68.4994 39.8193 68.6927 39.9162 68.9827L40.0131 69.176L40.207 69.4659C40.3039 69.6592 40.4978 69.8525 40.6917 70.0458C41.3702 70.819 42.3396 71.3023 43.4058 71.109C43.8905 71.0123 44.3752 70.819 44.8599 70.4324C45.0537 70.2391 45.3445 70.0458 45.5384 69.8525L45.8292 69.5626L46.0231 69.3693C46.2169 69.176 46.4108 68.886 46.6047 68.5961C46.7986 68.3061 46.8955 68.0162 47.0894 67.7262C47.4771 66.953 47.671 66.1798 47.7679 65.3099C47.8648 64.4401 47.574 63.3769 47.0894 62.6037C46.0231 61.0573 44.0844 60.7673 43.0181 61.1539C41.8549 61.5405 41.3702 62.2171 41.0794 62.7003C40.5947 63.2803 40.6917 63.6669 40.8855 63.8602Z" fill="#A8A8A8"/>
<path d="M196.002 88.1458C196.293 88.3391 196.584 88.3391 196.972 88.2425C197.359 88.1458 197.844 88.0491 198.329 88.1458C198.716 88.2424 199.007 88.4358 199.104 88.7257C199.104 88.8224 199.104 88.919 199.104 89.209C199.007 89.4989 198.91 89.8855 198.716 90.2721C198.619 90.4654 198.523 90.5621 198.426 90.7554C198.329 90.9487 198.232 91.0453 198.135 91.2386L198.038 91.4319L197.941 91.5286L197.844 91.4319C197.747 91.2386 197.553 91.142 197.456 90.9487C197.262 90.6587 197.069 90.4654 196.972 90.2721C196.681 89.8855 196.584 89.4989 196.584 89.1123C196.293 88.7257 196.293 88.3391 196.002 88.1458C195.808 87.9525 195.421 87.9525 194.936 88.3391C194.451 88.7257 193.967 89.6922 194.16 90.7554C194.16 91.3353 194.354 91.9152 194.645 92.4951C194.839 92.7851 194.936 92.9784 195.033 93.2683L195.13 93.4616L195.324 93.7516C195.421 93.9449 195.614 94.1382 195.808 94.3315C196.487 95.1047 197.456 95.5879 198.523 95.3946C199.007 95.298 199.492 95.1047 199.977 94.7181C200.17 94.5248 200.461 94.3315 200.655 94.1382L200.946 93.8482L201.14 93.6549C201.334 93.4616 201.528 93.1717 201.721 92.8817C201.915 92.5918 202.012 92.3018 202.206 92.0118C202.594 91.2386 202.788 90.4654 202.885 89.5956C202.982 88.7257 202.691 87.6625 202.206 86.8893C201.14 85.3429 199.201 85.053 198.135 85.4396C196.972 85.8262 196.487 86.5027 196.196 86.986C195.711 87.5659 195.808 87.9525 196.002 88.1458Z" fill="#A8A8A8"/>
<path d="M236.909 65.6259C236.036 64.7561 234.098 65.9159 231.965 67.9456C231.868 68.0422 231.771 68.1389 231.674 68.2355C231.577 68.3322 231.48 68.4288 231.383 68.5255C229.445 70.6518 228.185 72.4882 229.057 73.4547C229.833 74.2279 231.868 73.1647 234.001 71.1351C234.098 71.0384 234.195 70.9418 234.292 70.8451C234.388 70.7485 234.485 70.6518 234.582 70.5552C236.618 68.4288 237.781 66.3992 236.909 65.6259Z" fill="#A8A8A8"/>
<path d="M121.653 115.015C120.49 114.532 119.811 114.822 119.327 115.595V115.691C119.327 115.691 119.327 115.788 119.23 115.788C118.939 116.561 119.23 117.334 120.393 117.818C121.459 118.301 122.235 117.914 122.72 117.238V117.141C122.72 117.141 122.72 117.044 122.816 117.044C123.01 116.271 122.72 115.498 121.653 115.015Z" fill="#A8A8A8"/>
<path d="M58.9365 105.64C58.064 106.51 58.064 107.283 58.5487 107.863L58.6456 107.959L58.7426 108.056C59.3242 108.539 60.0997 108.539 60.9721 107.669C61.7476 106.896 61.8445 106.026 61.3598 105.446L61.2629 105.35L61.166 105.253C60.5843 104.77 59.8089 104.77 58.9365 105.64Z" fill="#A8A8A8"/>
<path d="M70.1809 10.5348C69.5993 10.5348 69.1147 11.0181 68.9208 11.7913C68.7269 12.5645 68.8239 13.6277 69.2116 14.7875L69.3085 15.0775L69.4055 15.3674C69.8901 16.4306 70.6656 17.3004 71.3442 17.7837C72.0227 18.2669 72.6043 18.2669 73.089 17.8803C73.9614 17.1071 73.4767 15.6574 72.7982 13.9176L72.7012 13.6277V13.531C71.9258 11.888 71.3442 10.4382 70.1809 10.5348Z" fill="#A8A8A8"/>
<path d="M136.872 28.1253C136 27.2555 134.836 27.6421 133.867 28.5119C133.77 28.5119 133.77 28.6086 133.77 28.7052C133.673 28.7052 133.673 28.8019 133.576 28.8019C132.704 29.7684 132.316 30.9282 133.189 31.7981C133.964 32.5713 135.127 32.2813 136.194 31.4115C136.194 31.4115 136.29 31.3148 136.29 31.2182C136.387 31.2182 136.387 31.1215 136.484 31.1215C137.357 30.0584 137.744 28.8985 136.872 28.1253Z" fill="#A8A8A8"/>
<path d="M252.515 110.955C251.643 110.086 250.577 110.376 249.704 111.149L249.607 111.245L249.51 111.342C248.735 112.212 248.444 113.275 249.317 114.145C250.092 114.918 251.255 114.725 252.128 113.952L252.225 113.855L252.322 113.758C253.097 112.792 253.291 111.729 252.515 110.955Z" fill="#A8A8A8"/>
<path d="M175.549 27.6422C174.677 26.7724 174.192 26.4824 173.998 26.4824C173.901 26.6757 174.192 27.0623 175.161 28.0288C175.937 28.802 176.518 29.1887 176.712 29.1887C176.712 28.9954 176.421 28.5121 175.549 27.6422Z" fill="#A8A8A8"/>
<path d="M191.543 0.38654C190.671 -0.48332 188.926 0.483191 187.181 2.12626C187.084 2.22291 186.987 2.31956 186.89 2.41621C186.793 2.51286 186.697 2.60952 186.6 2.70617C184.952 4.44589 183.982 6.08896 184.855 7.05547C185.63 7.82868 187.375 6.95882 189.217 5.31575C189.314 5.2191 189.411 5.12244 189.508 5.02579C189.605 4.92914 189.702 4.83249 189.798 4.73584C191.446 2.89947 192.319 1.15975 191.543 0.38654Z" fill="#A8A8A8"/>
<path d="M107.113 133.089C107.113 132.895 105.465 133.185 102.46 133.765C100.909 134.055 99.0674 134.442 96.8379 134.925C94.7054 135.408 92.1851 135.892 89.3739 136.471C86.272 135.505 82.8793 134.442 79.0019 133.282C74.9307 132.026 70.3747 130.672 65.528 129.223C57.3854 137.245 47.7889 146.813 36.9322 157.445C25.7847 168.463 13.377 180.738 0 194.076C11.1475 199.875 22.7797 205.867 34.8966 212.149C52.5387 208.283 71.2471 204.224 90.731 199.971C94.0268 201.904 97.5165 203.934 101.006 205.964C106.919 209.346 112.638 212.729 118.454 216.015L126.403 220.655L138.229 215.919C148.601 211.763 158.682 207.703 168.57 203.837C187.084 210.41 204.726 216.692 221.399 222.588C216.068 192.046 211.415 164.79 207.441 141.981C195.227 138.308 184.37 135.118 174.967 132.315C168.473 133.862 162.657 135.215 157.616 136.375C155.193 136.955 152.866 137.535 150.831 138.018C148.795 138.501 147.05 138.984 145.402 139.371C143.948 138.888 142.591 138.501 141.428 138.211C140.265 137.921 139.198 137.631 138.423 137.341C136.775 136.955 136 136.761 135.903 136.858C135.903 136.955 136.678 137.341 138.229 137.921C139.005 138.211 139.974 138.598 141.137 139.081C142.3 139.564 143.754 140.048 145.305 140.627C148.698 139.951 152.963 139.081 158.004 138.115C162.851 137.148 168.57 135.892 174.87 134.635C183.595 137.341 193.579 140.531 204.92 144.107C208.313 164.887 212.384 189.63 216.94 217.368C201.625 211.859 185.339 206.06 168.376 199.971C158.101 204.031 147.535 208.283 136.678 212.536L126.597 216.595L120.199 212.923C114.383 209.54 108.664 206.254 102.751 202.774C98.8736 200.551 94.9962 198.232 91.2157 196.105C71.7318 200.455 52.9264 204.611 35.2843 208.477C24.9123 203.161 14.928 198.038 5.42835 193.206C17.5452 180.931 28.7897 169.623 38.7739 159.378C49.049 148.843 58.2579 139.564 66.0126 131.639C75.2215 134.152 82.9762 136.278 89.1801 138.018C92.0881 137.245 94.7054 136.568 96.9349 135.988C99.0674 135.408 101.006 134.925 102.46 134.442C105.562 133.669 107.113 133.185 107.113 133.089Z" fill="#1B1B1B"/>
<path d="M35.1874 210.313C36.2537 211.086 47.4981 196.685 61.6506 177.741C62.3291 176.775 63.1046 175.808 63.7832 174.938C64.4617 173.972 65.1403 173.102 65.9157 172.136C79.9713 152.999 90.4402 138.114 89.374 137.341C88.4046 136.665 77.0632 150.969 62.9108 169.913C62.2322 170.879 61.4567 171.846 60.7782 172.715C60.0996 173.682 59.4211 174.552 58.6456 175.518C44.5901 194.655 34.218 209.636 35.1874 210.313Z" fill="#1B1B1B"/>
<path d="M91.0219 198.038C92.1851 198.521 97.0318 187.407 102.751 172.812C103.042 172.039 103.333 171.362 103.623 170.589C103.914 169.913 104.205 169.14 104.496 168.366C110.118 153.675 113.995 142.27 112.735 141.884C111.669 141.497 106.725 152.516 101.006 167.11C100.715 167.883 100.425 168.56 100.134 169.333C99.8429 170.009 99.5521 170.783 99.2613 171.556C93.736 186.247 89.9556 197.652 91.0219 198.038Z" fill="#1B1B1B"/>
<path d="M126.5 218.721C127.76 219.011 132.025 203.354 136.969 182.961C137.26 181.897 137.454 180.931 137.744 179.868C138.035 178.901 138.229 177.838 138.52 176.775C143.367 156.285 146.662 140.434 145.402 140.144C144.239 139.854 139.877 155.512 134.933 175.905C134.643 176.968 134.449 177.935 134.158 178.998C133.867 179.964 133.673 181.028 133.382 182.091C128.633 202.484 125.434 218.432 126.5 218.721Z" fill="#1B1B1B"/>
<path d="M17.4482 201.228L13.377 205.867C8.23943 211.763 12.2138 221.041 20.0655 221.331L211.706 228C220.818 228.29 224.986 216.692 217.716 211.279L219.17 220.075L168.473 202.001L126.5 218.721L91.0218 198.135L35.1873 210.409L17.4482 201.228Z" fill="#1B1B1B"/>
<path d="M7.36708 191.659C6.5916 190.693 5.81613 190.596 5.33145 190.983L5.23452 191.079L5.13758 191.176C4.65291 191.659 4.65291 192.433 5.52532 193.302C6.3008 194.172 7.07628 194.269 7.56095 193.979L7.65789 193.882L7.75482 193.786C8.14256 193.302 8.14256 192.529 7.36708 191.659Z" fill="#1B1B1B"/>
<path d="M15.5096 186.15C14.928 184.99 13.7647 185.087 12.6015 185.764L12.4077 185.86L12.2138 185.957C11.1475 186.73 10.5659 187.697 11.2444 188.663C11.923 189.63 13.0862 189.63 14.1525 189.05L14.3463 188.953L14.5402 188.856C15.5096 188.18 16.0912 187.213 15.5096 186.15Z" fill="#1B1B1B"/>
<path d="M24.4277 182.187C24.0399 181.028 22.8767 180.931 21.6166 181.318L21.4227 181.414L21.2288 181.511C20.0656 182.091 19.2901 182.961 19.8717 184.12C20.3564 185.184 21.5196 185.377 22.6828 184.99L22.8767 184.894L23.0706 184.797C24.1369 184.217 24.8154 183.251 24.4277 182.187Z" fill="#1B1B1B"/>
<path d="M33.8304 179.288C33.5396 178.031 32.4733 177.838 31.1162 178.128L30.9223 178.225H30.7284C29.4683 178.611 28.6928 179.384 29.0806 180.641C29.4683 181.704 30.5346 182.091 31.7947 181.801L31.9886 181.704H32.1825C33.3457 181.317 34.1212 180.448 33.8304 179.288Z" fill="#1B1B1B"/>
<path d="M43.4268 177.355C43.2329 176.098 42.1667 175.808 40.9065 175.905H40.7126H40.5188C39.2586 176.195 38.3862 176.872 38.5801 178.128C38.7739 179.288 39.8402 179.674 41.1004 179.578H41.2942H41.4881C42.7483 179.288 43.6207 178.515 43.4268 177.355Z" fill="#1B1B1B"/>
<path d="M53.2173 176.195C53.1204 174.939 52.0541 174.552 50.794 174.552H50.6001H50.4062C49.1461 174.745 48.1767 175.325 48.3706 176.582C48.4675 177.741 49.5338 178.225 50.794 178.225H50.9878H51.1817C52.3449 178.031 53.3143 177.355 53.2173 176.195Z" fill="#1B1B1B"/>
<path d="M63.0076 175.808C63.0076 174.552 62.0383 174.069 60.6812 173.972H60.4873H60.2935C59.0333 174.069 58.064 174.648 58.064 175.905C58.1609 177.065 59.1302 177.645 60.3904 177.741H60.5843H60.7781C62.0383 177.548 63.0076 176.968 63.0076 175.808Z" fill="#1B1B1B"/>
<path d="M72.7982 176.098C72.8951 174.842 71.9257 174.262 70.6656 174.165H70.4717H70.2779C69.0177 174.165 67.9514 174.649 67.9514 175.905C67.9514 177.065 68.8238 177.741 70.084 177.838H70.2779H70.4717C71.7319 177.741 72.7012 177.258 72.7982 176.098Z" fill="#1B1B1B"/>
<path d="M82.5886 177.161C82.7825 175.905 81.91 175.228 80.6499 175.035H80.456H80.2622C79.002 174.938 77.9357 175.325 77.7418 176.582C77.6449 177.741 78.5173 178.418 79.7775 178.708H79.9713H80.1652C81.3284 178.708 82.3947 178.321 82.5886 177.161Z" fill="#1B1B1B"/>
<path d="M92.185 178.998C92.3789 177.742 91.6034 177.065 90.3433 176.775H90.1494H89.9555C88.6954 176.582 87.6291 176.968 87.3383 178.128C87.1444 179.288 87.9199 180.061 89.1801 180.351H89.3739H89.5678C90.9249 180.544 91.9912 180.158 92.185 178.998Z" fill="#1B1B1B"/>
<path d="M101.879 180.351C101.976 179.094 101.006 178.515 99.843 178.225H99.6491H99.4552C98.1951 178.128 97.2257 178.611 97.0318 179.868C96.838 181.028 97.8073 181.704 99.0675 181.994H99.2613H99.4552C100.812 181.994 101.782 181.511 101.879 180.351Z" fill="#1B1B1B"/>
<path d="M111.669 179.771C111.378 178.515 110.312 178.321 109.149 178.321H108.955H108.761C107.598 178.515 106.725 179.095 106.725 180.351C106.822 181.511 107.792 182.091 109.246 181.994H109.44H109.633C111.087 181.704 111.96 180.834 111.669 179.771Z" fill="#1B1B1B"/>
<path d="M120.49 175.615C119.715 174.649 118.745 174.745 117.679 175.228L117.485 175.325L117.291 175.422C116.322 176.098 115.643 176.872 116.225 178.031C116.71 179.094 117.873 179.191 119.133 178.611L119.327 178.515L119.521 178.418C120.684 177.741 121.169 176.582 120.49 175.615Z" fill="#1B1B1B"/>
<path d="M126.597 168.076C125.434 167.69 124.658 168.27 123.98 169.14L123.883 169.333L123.786 169.43C123.301 170.396 123.107 171.459 124.077 172.232C124.949 173.006 126.112 172.522 126.985 171.363L127.082 171.169L127.179 170.976C127.857 169.719 127.663 168.463 126.597 168.076Z" fill="#1B1B1B"/>
<path d="M126.112 158.701C125.628 159.088 125.434 159.571 125.337 159.958C125.24 160.344 125.24 160.828 125.337 161.214V161.311V161.408C125.628 162.374 126.112 163.147 127.372 163.244C128.536 163.244 129.214 162.181 128.923 160.538V160.441L128.827 160.248C128.536 159.474 128.051 158.895 127.566 158.605C127.082 158.315 126.597 158.315 126.112 158.701Z" fill="#1B1B1B"/>
<path d="M118.067 160.344C119.23 160.924 120.005 160.538 120.684 159.958L120.781 159.861L120.878 159.764C121.169 159.474 121.459 159.088 121.653 158.701C121.847 158.315 121.847 157.831 121.653 157.251C121.459 156.672 121.072 156.382 120.49 156.285C119.908 156.188 119.133 156.382 118.454 156.962C118.358 157.058 118.358 157.058 118.261 157.155L118.067 157.348C117.097 158.411 117.097 159.861 118.067 160.344Z" fill="#1B1B1B"/>
<path d="M120.005 169.236C120.878 168.366 120.587 167.4 120.102 166.433L120.005 166.337L119.908 166.24C119.327 165.467 118.648 164.79 117.388 165.08C116.807 165.274 116.516 165.563 116.322 166.143C116.225 166.723 116.322 167.4 116.71 168.076L116.807 168.27L116.903 168.463C117.97 169.719 119.23 170.009 120.005 169.236Z" fill="#1B1B1B"/>
<path d="M128.342 174.262C128.827 173.102 128.148 172.232 127.082 171.652L126.888 171.556L126.694 171.459C125.628 170.976 124.561 170.976 123.883 172.136C123.301 173.102 123.883 174.165 125.046 174.842C125.143 174.842 125.143 174.939 125.24 174.939L125.434 175.035C126.791 175.422 127.954 175.325 128.342 174.262Z" fill="#1B1B1B"/>
<path d="M137.938 175.905C137.841 174.649 136.872 174.262 135.806 174.069H135.612H135.418C134.255 174.069 133.285 174.359 132.995 175.615C132.801 176.775 133.673 177.548 135.127 177.741H135.321H135.515C136.969 177.741 138.035 177.065 137.938 175.905Z" fill="#1B1B1B"/>
<path d="M146.566 171.749C145.693 170.783 144.627 171.169 143.754 171.749L143.658 171.846L143.561 171.942C142.785 172.716 142.203 173.489 142.785 174.649C143.076 175.132 143.464 175.422 144.045 175.519C144.627 175.615 145.208 175.325 145.887 174.939L146.081 174.842L146.275 174.745C147.05 173.682 147.341 172.522 146.566 171.749Z" fill="#1B1B1B"/>
<path d="M154.708 166.53C154.514 165.273 153.254 164.984 151.8 165.467L151.606 165.563L151.412 165.66C150.734 166.047 150.249 166.53 150.055 167.013C149.861 167.496 149.861 167.98 150.249 168.56C150.637 169.043 151.024 169.236 151.509 169.333C151.994 169.429 152.478 169.236 152.963 169.14L153.06 169.043L153.254 168.946C154.126 168.366 154.902 167.69 154.708 166.53Z" fill="#1B1B1B"/>
<path d="M164.305 167.98C164.789 166.82 164.014 165.95 162.754 165.467L162.56 165.37L162.366 165.274C161.009 164.984 159.846 165.274 159.652 166.53C159.458 167.69 160.233 168.366 161.3 168.85H161.494L161.688 168.946C162.754 169.236 163.82 169.043 164.305 167.98Z" fill="#1B1B1B"/>
<path d="M172.835 172.812C173.514 171.749 172.932 170.783 171.963 170.009L171.769 169.913L171.575 169.816C170.412 169.236 169.248 169.14 168.667 170.203C168.085 171.169 168.57 172.232 169.636 172.909L169.83 173.006L170.024 173.102C170.993 173.779 172.156 173.779 172.835 172.812Z" fill="#1B1B1B"/>
<path d="M181.559 177.162C181.947 175.905 181.268 175.229 180.202 174.649L180.008 174.552L179.814 174.455C178.651 174.069 177.585 174.069 177.003 175.132C176.421 176.195 177.1 177.162 178.263 177.838L178.457 177.935L178.651 178.031C180.008 178.515 181.171 178.321 181.559 177.162Z" fill="#1B1B1B"/>
<path d="M191.156 176.968C190.477 175.905 189.605 175.808 188.635 175.905H188.441H188.248C187.181 176.195 186.309 176.678 186.309 177.935C186.309 179.095 187.375 179.771 188.926 179.578H189.12H189.314C190.089 179.385 190.671 178.998 190.962 178.515C191.349 178.031 191.349 177.452 191.156 176.968Z" fill="#1B1B1B"/>
<path d="M196.002 168.85C194.742 168.656 194.064 169.429 193.676 170.493V170.686L193.579 170.879C193.288 171.942 193.385 172.909 194.451 173.489C195.421 174.069 196.584 173.295 197.069 171.942L197.165 171.749L197.262 171.556C197.553 170.203 197.069 169.043 196.002 168.85Z" fill="#1B1B1B"/>
<path d="M196.972 159.088C195.712 158.991 195.13 159.958 194.936 161.214C194.936 161.311 194.936 161.311 194.936 161.407C194.936 161.504 194.936 161.504 194.936 161.601C194.936 162.857 195.324 163.92 196.584 164.017C197.747 164.114 198.426 163.147 198.62 161.891C198.62 161.794 198.62 161.794 198.62 161.697C198.62 161.601 198.62 161.601 198.62 161.504C198.716 160.248 198.135 159.184 196.972 159.088Z" fill="#1B1B1B"/>
<path d="M199.104 149.616C198.038 149.036 196.972 149.809 196.487 151.162L196.39 151.356L196.293 151.549C196.002 152.902 196.293 154.062 197.553 154.255C198.716 154.449 199.492 153.675 199.88 152.612V152.419L199.977 152.226C200.267 151.162 200.17 150.196 199.104 149.616Z" fill="#1B1B1B"/>
<path d="M204.823 145.46C204.63 144.204 203.951 143.817 203.176 143.914H203.079H202.982C202.206 144.203 201.915 144.977 202.497 146.137C203.079 147.2 203.66 147.49 204.145 147.49H204.242H204.339C204.63 147.296 204.92 146.62 204.823 145.46Z" fill="#1B1B1B"/>
</g>
<defs>
<clipPath id="clip0_201_1836">
<rect width="253" height="228" fill="white"/>
</clipPath>
</defs>
</svg>
