<svg width="230" height="186" viewBox="0 0 230 186" fill="none" xmlns="http://www.w3.org/2000/svg">
<g clip-path="url(#clip0_201_2901)">
<path d="M223.933 136.716C224.197 136.891 224.461 136.891 224.813 136.803C225.164 136.716 225.604 136.628 226.044 136.716C226.395 136.803 226.659 136.979 226.747 137.242C226.747 137.33 226.747 137.417 226.747 137.68C226.659 137.943 226.571 138.294 226.395 138.645C226.307 138.82 226.219 138.908 226.131 139.083C226.044 139.259 225.956 139.347 225.868 139.522L225.78 139.697L225.692 139.785L225.604 139.697C225.516 139.522 225.34 139.434 225.252 139.259C225.076 138.996 224.901 138.82 224.813 138.645C224.549 138.294 224.461 137.943 224.461 137.593C224.197 137.154 224.109 136.891 223.933 136.716C223.758 136.54 223.406 136.54 222.966 136.891C222.527 137.242 222.087 138.119 222.263 139.083C222.263 139.61 222.439 140.136 222.703 140.662C222.878 140.925 222.966 141.1 223.054 141.363L223.142 141.539L223.318 141.802C223.406 141.977 223.582 142.153 223.758 142.328C224.373 143.03 225.252 143.468 226.219 143.293C226.659 143.205 227.099 143.03 227.538 142.679C227.714 142.504 227.978 142.328 228.154 142.153L228.417 141.89L228.593 141.714C228.769 141.539 228.945 141.276 229.121 141.013C229.297 140.75 229.385 140.487 229.56 140.223C229.912 139.522 230.088 138.82 230.176 138.031C230.264 137.242 230 136.277 229.56 135.576C228.593 134.173 226.835 133.909 225.868 134.26C224.813 134.611 224.373 135.225 224.109 135.663C223.67 136.19 223.67 136.54 223.933 136.716Z" fill="#1B1B1B"/>
<path d="M79.3922 31.7455C79.656 31.9209 79.9197 31.9209 80.2714 31.8332C80.6231 31.7455 81.0627 31.6578 81.5023 31.7455C81.854 31.8332 82.1177 32.0086 82.2057 32.2716C82.2057 32.3593 82.2057 32.447 82.2057 32.7101C82.1177 32.9732 82.0298 33.324 81.854 33.6748C81.766 33.8501 81.6781 33.9378 81.5902 34.1132C81.5023 34.2886 81.4144 34.3763 81.3264 34.5517L81.2385 34.7271L81.1506 34.8148L80.8868 34.7271C80.7989 34.5517 80.6231 34.464 80.5352 34.2886C80.3593 34.0255 80.1835 33.8501 80.0956 33.6748C79.8318 33.324 79.7439 32.9732 79.7439 32.6224C79.656 32.2716 79.656 31.9209 79.3922 31.7455C79.2164 31.5701 78.8647 31.5701 78.4251 31.9209C77.9855 32.2716 77.5459 33.1486 77.7217 34.1132C77.7217 34.6394 77.8975 35.1656 78.1613 35.6917C78.3372 35.9548 78.4251 36.1302 78.513 36.3933L78.6009 36.5687L78.7768 36.8318C78.8647 37.0071 79.0405 37.1825 79.2164 37.3579C79.8318 38.0595 80.711 38.4979 81.6781 38.3226C82.1177 38.2349 82.5573 38.0595 82.9969 37.7087C83.1728 37.5333 83.4365 37.3579 83.6124 37.1825L83.8761 36.9194L84.052 36.7441C84.2278 36.5687 84.4037 36.3056 84.5795 36.0425C84.7553 35.7794 84.8433 35.5163 85.0191 35.2533C85.3708 34.5517 85.5466 33.8501 85.6346 33.0609C85.7225 32.2716 85.4587 31.307 85.0191 30.6054C84.052 29.2023 82.2936 28.9393 81.3264 29.29C80.2714 29.6408 79.8318 30.2547 79.568 30.6931C79.1284 31.307 79.2164 31.6578 79.3922 31.7455Z" fill="#1B1B1B"/>
<path d="M200.723 163.901C200.986 164.076 201.25 164.076 201.602 163.989C201.953 163.901 202.393 163.813 202.833 163.901C203.184 163.989 203.448 164.164 203.536 164.427C203.536 164.515 203.536 164.603 203.536 164.866C203.448 165.129 203.36 165.479 203.184 165.83C203.096 166.006 203.008 166.093 202.921 166.269C202.833 166.444 202.745 166.532 202.657 166.707L202.569 166.883L202.481 166.97L202.393 166.883C202.305 166.707 202.129 166.62 202.041 166.444C201.865 166.181 201.69 166.006 201.602 165.83C201.338 165.479 201.25 165.129 201.25 164.778C200.986 164.339 200.986 164.076 200.723 163.901C200.547 163.726 200.195 163.726 199.755 164.076C199.316 164.427 198.876 165.304 199.052 166.269C199.052 166.795 199.228 167.321 199.492 167.847C199.667 168.11 199.755 168.286 199.843 168.549L199.931 168.724L200.107 168.987C200.195 169.163 200.371 169.338 200.547 169.513C201.162 170.215 202.041 170.653 203.008 170.478C203.448 170.39 203.888 170.215 204.327 169.864C204.503 169.689 204.767 169.513 204.943 169.338L205.206 169.075L205.382 168.9C205.558 168.724 205.734 168.461 205.91 168.198C206.086 167.935 206.174 167.672 206.349 167.409C206.701 166.707 206.877 166.006 206.965 165.216C207.053 164.427 206.789 163.463 206.349 162.761C205.382 161.358 203.624 161.095 202.657 161.446C201.602 161.796 201.162 162.41 200.898 162.849C200.459 163.375 200.547 163.726 200.723 163.901Z" fill="#A8A8A8"/>
<path d="M68.1384 171.267C68.4022 171.443 68.6659 171.443 69.0176 171.355C69.3693 171.267 69.8089 171.18 70.2485 171.267C70.6002 171.355 70.8639 171.53 70.9519 171.793C70.9519 171.881 70.9519 171.969 70.9519 172.232C70.8639 172.495 70.776 172.846 70.6002 173.196C70.5123 173.372 70.4243 173.46 70.3364 173.635C70.2485 173.81 70.1606 173.898 70.0727 174.073L69.9847 174.249L69.8968 174.337L69.8089 174.249C69.721 174.073 69.5451 173.986 69.4572 173.81C69.2814 173.547 69.1055 173.372 69.0176 173.196C68.7539 172.846 68.6659 172.495 68.6659 172.144C68.4022 171.793 68.4022 171.443 68.1384 171.267C67.9626 171.092 67.6109 171.092 67.1713 171.443C66.7317 171.793 66.2921 172.67 66.4679 173.635C66.4679 174.161 66.6438 174.687 66.9075 175.213C67.0834 175.477 67.1713 175.652 67.2592 175.915L67.3471 176.09L67.523 176.353C67.6109 176.529 67.7867 176.704 67.9626 176.88C68.578 177.581 69.4572 178.02 70.4243 177.844C70.8639 177.757 71.3035 177.581 71.7432 177.23C71.919 177.055 72.1828 176.88 72.3586 176.704L72.6224 176.441L72.7982 176.266C72.974 176.09 73.1499 175.827 73.3257 175.564C73.5016 175.301 73.5895 175.038 73.7653 174.775C74.117 174.073 74.2928 173.372 74.3808 172.583C74.4687 171.793 74.2049 170.829 73.7653 170.127C72.7982 168.724 71.0398 168.461 70.0727 168.812C69.0176 169.163 68.578 169.776 68.3143 170.215C67.8746 170.829 67.9626 171.18 68.1384 171.267Z" fill="#A8A8A8"/>
<path d="M207.844 59.5447C207.053 58.7554 205.294 59.8078 203.36 61.6493C203.272 61.737 203.184 61.8247 203.096 61.9124C203.008 62.0001 202.92 62.0878 202.833 62.1755C201.074 64.1048 199.931 65.771 200.722 66.6479C201.426 67.3495 203.272 66.3848 205.206 64.5433C205.294 64.4556 205.382 64.3679 205.47 64.2802C205.558 64.1925 205.646 64.1048 205.734 64.0171C207.58 62.0878 208.547 60.2462 207.844 59.5447Z" fill="#A8A8A8"/>
<path d="M15.0344 140.399C13.9793 139.96 13.3639 140.224 12.9243 140.925V141.013C12.9243 141.013 12.9243 141.1 12.8363 141.1C12.5726 141.802 12.8363 142.504 13.8914 142.942C14.8585 143.381 15.5619 143.03 16.0015 142.416V142.328C16.0015 142.328 16.0015 142.241 16.0894 142.241C16.2652 141.627 16.0015 140.837 15.0344 140.399Z" fill="#A8A8A8"/>
<path d="M46.422 95.8501C45.6307 96.6394 45.6307 97.3409 46.0703 97.8671L46.1582 97.9548L46.2462 98.0425C46.7737 98.481 47.477 98.481 48.2683 97.6917C48.9717 96.9902 49.0596 96.2009 48.62 95.6748L48.5321 95.5871L48.4442 95.4994C47.9166 95.0609 47.1254 95.0609 46.422 95.8501Z" fill="#A8A8A8"/>
<path d="M56.5329 9.55859C56.0054 9.55859 55.5658 9.99706 55.3899 10.6986C55.2141 11.4002 55.302 12.3648 55.6537 13.4171L55.7416 13.6802L55.8295 13.9433C56.2691 14.908 56.9725 15.6972 57.5879 16.1357C58.2034 16.5742 58.7309 16.5742 59.1705 16.2234C59.9618 15.5218 59.5222 14.2064 58.9067 12.6279L58.8188 12.3648L58.9067 12.2771C58.2034 10.7863 57.5879 9.4709 56.5329 9.55859Z" fill="#A8A8A8"/>
<path d="M117.11 25.5191C116.319 24.7299 115.264 25.0806 114.385 25.8699C114.385 25.8699 114.297 25.9576 114.297 26.0453C114.209 26.0453 114.209 26.133 114.121 26.133C113.33 27.0099 112.978 28.0622 113.769 28.8515C114.473 29.553 115.528 29.29 116.495 28.5007C116.495 28.5007 116.583 28.413 116.583 28.3253C116.671 28.3253 116.671 28.2376 116.758 28.2376C117.55 27.273 117.813 26.2207 117.11 25.5191Z" fill="#A8A8A8"/>
<path d="M78.3371 74.1019C77.5458 73.3126 76.5787 73.5757 75.7874 74.2773L75.6995 74.365L75.6116 74.4526C74.9082 75.2419 74.6445 76.2065 75.4358 76.9958C76.1391 77.6973 77.1942 77.522 77.9854 76.8204L78.0734 76.7327L78.1613 76.645C78.9526 75.7681 79.1284 74.8034 78.3371 74.1019Z" fill="#A8A8A8"/>
<path d="M152.19 25.0807C151.399 24.2914 150.959 24.0283 150.784 24.0283C150.696 24.2037 150.959 24.5545 151.839 25.4314C152.542 26.133 153.07 26.4838 153.245 26.4838C153.245 26.3084 152.894 25.8699 152.19 25.0807Z" fill="#A8A8A8"/>
<path d="M166.609 0.35067C165.818 -0.438581 164.235 0.438364 162.653 1.92917C162.565 2.01686 162.477 2.10456 162.389 2.19225C162.301 2.27995 162.213 2.36764 162.125 2.45534C160.631 4.03384 159.752 5.52464 160.543 6.40159C161.246 7.10315 162.829 6.31389 164.499 4.82309C164.587 4.73539 164.675 4.6477 164.763 4.56C164.851 4.47231 164.939 4.38462 165.027 4.29692C166.609 2.63073 167.401 1.05223 166.609 0.35067Z" fill="#A8A8A8"/>
<path d="M210.833 109.969C210.042 109.18 208.46 110.057 206.877 111.547C206.789 111.635 206.701 111.723 206.613 111.81C206.525 111.898 206.437 111.986 206.349 112.074C204.855 113.652 203.976 115.143 204.767 116.02C205.47 116.721 207.053 115.932 208.723 114.441C208.811 114.354 208.899 114.266 208.987 114.178C209.075 114.09 209.163 114.003 209.251 113.915C210.745 112.249 211.537 110.758 210.833 109.969Z" fill="#A8A8A8"/>
<path d="M204.943 83.0466C214.169 83.0466 221.648 75.8616 221.648 66.9985C221.648 58.1354 214.169 50.9504 204.943 50.9504C195.717 50.9504 188.238 58.1354 188.238 66.9985C188.238 75.8616 195.717 83.0466 204.943 83.0466Z" fill="#E2E2E2"/>
<path d="M212.328 48.2319C212.416 47.9688 211.361 47.0919 208.987 46.3903C207.756 46.0396 206.261 45.7765 204.415 45.8642C202.569 45.9519 200.459 46.3026 198.349 47.2673C194.128 49.1089 189.82 53.3182 187.71 59.2814C186.655 62.263 186.303 65.5954 186.919 69.1032C187.271 70.7694 187.71 72.5233 188.589 74.1895C189.381 75.8557 190.436 77.3465 191.667 78.7496C192.634 79.8896 193.865 80.7666 195.096 81.6435C196.326 82.4328 197.645 83.1343 199.052 83.6605C202.569 84.9759 206.349 85.1513 209.778 84.4497C213.207 83.6605 216.284 82.082 218.57 79.8896C220.944 77.785 222.527 75.1541 223.494 72.611C224.461 69.9801 224.725 67.437 224.637 65.0693C224.373 60.4214 222.439 57.0891 221.032 55.0721C219.537 53.0551 218.307 52.3536 218.131 52.5289C217.955 52.7043 218.746 53.7567 219.801 55.8613C220.856 57.8783 222.175 61.123 222.175 65.157C222.175 67.1739 221.823 69.3663 220.856 71.5586C219.977 73.751 218.482 75.8557 216.46 77.6096C214.526 79.3635 211.888 80.6789 209.075 81.2927C206.261 81.8189 203.096 81.7312 200.283 80.5912C199.14 80.1527 197.997 79.5388 197.03 78.925C196.063 78.2234 195.096 77.4342 194.216 76.5572C193.161 75.4172 192.282 74.1895 191.579 72.8741C190.875 71.5586 190.436 70.1555 190.172 68.7524C189.644 65.9462 189.908 63.0523 190.699 60.5091C191.491 57.966 192.81 55.6859 194.392 53.9321C195.975 52.0905 197.733 50.7751 199.492 49.8104C203.096 47.9688 206.525 47.8811 208.811 48.1442C211.009 48.0565 212.24 48.5827 212.328 48.2319Z" fill="#1B1B1B"/>
<path d="M207.932 59.6322C208.02 59.3692 207.756 58.9307 206.965 58.5799C206.174 58.2291 204.679 57.966 203.096 58.5799C201.514 59.1938 199.843 60.6846 199.052 62.8769C198.612 63.9293 198.524 65.2447 198.7 66.5601C198.876 67.8755 199.492 69.1909 200.459 70.2433C200.81 70.6817 201.25 71.0325 201.777 71.3833C202.217 71.6464 202.745 71.9972 203.272 72.1725C204.591 72.6987 206.086 72.6987 207.316 72.4356C208.635 72.1725 209.778 71.471 210.57 70.6817C212.328 69.0155 212.855 66.7355 212.68 65.0693C212.504 63.4031 211.713 62.2631 211.097 61.6492C210.482 61.0354 209.954 60.86 209.778 61.123C209.602 61.2984 209.69 61.7369 209.954 62.4385C210.13 63.14 210.394 64.1047 210.306 65.2447C210.218 66.297 209.69 67.6124 208.635 68.4017C208.108 68.8402 207.404 69.1032 206.701 69.2786C205.998 69.3663 205.206 69.3663 204.503 69.0155C204.239 68.9278 203.975 68.7525 203.712 68.5771C203.448 68.4017 203.184 68.2263 203.008 67.9632C201.953 66.8232 201.69 65.2447 202.041 63.8416C202.393 62.4385 203.272 61.3861 204.239 60.7723C205.998 59.5445 207.668 60.0707 207.932 59.6322Z" fill="#1B1B1B"/>
<path d="M179.358 182.404C179.446 182.492 179.709 182.229 180.149 181.703C180.325 181.44 180.589 181.089 180.852 180.738C181.116 180.3 181.292 179.861 181.556 179.335C182.611 177.143 183.578 173.635 183.754 169.25C183.842 164.866 183.05 159.428 180.589 153.991C180.413 153.641 180.237 153.29 180.149 152.939C180.061 152.676 179.885 152.325 179.709 152.062C179.446 151.448 179.27 150.834 179.006 150.133C178.654 148.817 178.391 147.414 178.303 145.924C178.127 143.03 178.391 139.873 179.182 136.716C179.358 136.102 179.446 135.488 179.709 134.962C179.973 134.348 180.149 133.734 180.413 133.12C180.852 131.892 181.292 130.665 181.82 129.349C191.051 104.093 197.733 84.6251 196.59 84.1866C195.623 83.8358 187.974 103.041 178.566 128.209C178.127 129.525 177.687 130.752 177.16 131.98C176.896 132.594 176.72 133.208 176.456 133.822C176.193 134.523 176.017 135.225 175.841 135.926C175.05 139.346 174.786 142.767 174.962 146.099C175.05 147.765 175.401 149.344 175.841 150.922C176.017 151.273 176.105 151.711 176.281 152.062C176.368 152.413 176.544 152.851 176.72 153.202C176.896 153.553 177.072 153.904 177.248 154.254C177.424 154.605 177.599 154.868 177.687 155.219C180.149 160.13 181.116 165.041 181.204 169.163C181.38 173.284 180.764 176.529 180.149 178.809C179.973 179.335 179.885 179.861 179.709 180.3C179.622 180.738 179.446 181.089 179.358 181.352C179.27 181.966 179.182 182.317 179.358 182.404Z" fill="#1B1B1B"/>
<path d="M176.544 185.298C176.544 185.298 96.6246 111.284 49.9388 110.758C49.2355 110.758 48.7959 111.635 49.2355 112.161C66.5558 135.049 140.497 185.561 176.544 185.298Z" fill="#1B1B1B"/>
<path d="M176.544 185.298C176.544 184.685 172.764 184.421 166.258 182.755C163.005 181.878 159.048 180.738 154.476 178.984C149.904 177.318 144.805 175.126 139.266 172.495C128.188 167.233 115.264 160.042 101.46 150.922C94.5145 146.362 87.393 141.451 80.1835 135.926C72.974 130.402 65.6766 124.526 58.9067 117.774C58.2034 117.072 57.5879 116.458 56.8846 115.757L55.9174 114.704C55.7416 114.441 55.8295 114.617 55.7416 114.529L56.8846 114.704L58.2913 114.88C58.7309 114.967 59.1705 115.055 59.698 115.143C60.841 115.406 61.9839 115.669 63.1269 115.844C64.2699 116.195 65.4128 116.458 66.4679 116.809C67.6109 117.072 68.6659 117.511 69.8089 117.861C70.8639 118.212 72.0069 118.563 73.0619 119.001C75.172 119.878 77.37 120.58 79.4801 121.545C80.5352 121.983 81.5902 122.421 82.6453 122.86C83.7003 123.386 84.6674 123.825 85.7225 124.263C93.8112 128.122 101.372 132.419 108.406 136.716C122.473 145.397 134.518 153.992 144.453 161.358C164.323 176.441 175.753 186.175 176.544 185.298C176.896 184.948 174.434 181.966 169.511 177.231C164.587 172.407 157.114 165.655 147.443 157.762C137.771 149.87 125.902 140.75 111.659 131.717C104.537 127.157 96.8884 122.685 88.5359 118.563C80.1835 114.529 71.1277 110.758 61.0168 108.653C60.4893 108.566 60.0497 108.39 59.5222 108.303L57.9396 108.04L56.1812 107.777L54.7745 107.601C54.3349 107.601 53.8073 107.513 53.3677 107.513H53.0161L52.7523 107.601L52.2248 107.689L51.1697 107.864L49.1476 108.215L47.1254 108.566L46.8616 108.653C46.7737 108.653 46.6858 108.653 46.6858 108.741C46.5979 108.829 46.5099 108.917 46.422 109.092C46.2462 109.355 46.0703 109.618 45.8945 109.969C45.7187 110.32 45.6307 110.583 45.6307 110.846C45.6307 111.109 45.7187 111.372 45.8066 111.635L46.1583 113.301L46.3341 114.178C46.5979 114.529 46.9495 114.88 47.2133 115.231L49.0596 117.423L49.9388 118.475C50.2026 118.826 50.6422 119.264 50.7301 119.44L51.7852 120.492C52.4885 121.194 53.1919 121.983 53.8953 122.685C61.1047 129.7 68.578 135.663 76.0512 141.276C83.4365 146.801 90.8219 151.711 97.9434 156.272C112.187 165.216 125.55 172.232 137.156 177.055C142.959 179.511 148.322 181.44 153.07 182.843C157.817 184.334 162.037 185.123 165.554 185.649C172.676 186.438 176.632 185.737 176.544 185.298Z" fill="#1B1B1B"/>
<path d="M170.566 146.537C170.917 146.099 165.642 141.1 156.323 133.646C151.663 129.875 145.948 125.578 139.442 120.843C132.936 116.195 125.55 111.197 117.462 106.373C115.791 105.409 114.209 104.444 112.538 103.567C110.868 102.69 109.285 101.726 107.615 100.849C105.505 99.7962 103.395 98.7439 101.284 97.6916C100.229 97.1654 99.1743 96.7269 98.1193 96.2885C97.0642 95.85 96.0092 95.4115 95.0421 94.973C94.5145 94.7976 93.987 94.5346 93.5474 94.3592C93.0199 94.1838 92.4924 94.0084 91.9648 93.833C90.9098 93.4822 89.8548 93.1315 88.8876 92.7807C87.8326 92.4299 86.8655 92.0791 85.8104 91.9037C84.7554 91.6406 83.7882 91.3776 82.8211 91.2022C78.7768 90.3252 74.9083 89.9744 71.2156 90.0621C67.5229 90.1498 64.182 90.8514 61.1927 91.9037C59.698 92.4299 58.3792 93.1314 57.1483 93.833C55.9174 94.5346 54.8624 95.3238 53.9832 96.2008C52.1369 97.7793 50.8181 99.5331 49.9388 100.936C48.1804 103.83 47.9167 105.759 48.1804 105.847C48.4442 105.935 49.1476 104.269 51.0818 101.726C52.0489 100.498 53.3677 99.007 55.2141 97.6916C56.0933 96.99 57.1483 96.3761 58.2913 95.7623C59.4343 95.1484 60.6651 94.6223 61.984 94.1838C64.7095 93.3068 67.7867 92.8684 71.2156 92.8684C74.6445 92.8684 78.2492 93.3945 82.1178 94.2715C83.0849 94.4469 84.052 94.71 85.0191 94.973C85.9862 95.2361 86.9534 95.5869 87.9205 95.9377C88.8876 96.2885 89.8548 96.6392 90.9098 96.99C91.4373 97.1654 91.8769 97.3408 92.4044 97.5162C92.932 97.6916 93.3716 97.9546 93.8991 98.13C94.8662 98.5685 95.9213 99.007 96.8884 99.4455C97.9434 99.8839 98.9106 100.322 99.9656 100.849C101.988 101.901 104.01 102.866 106.12 103.918C107.791 104.795 109.373 105.672 111.044 106.636C112.714 107.513 114.209 108.478 115.879 109.443C123.88 114.178 131.265 119.001 137.859 123.561C144.453 128.122 150.168 132.243 155.004 135.751C164.411 142.591 170.214 146.976 170.566 146.537Z" fill="#1B1B1B"/>
<path d="M188.414 51.4766C188.765 51.0381 183.754 46.3903 174.17 40.6901C171.797 39.287 169.071 37.7962 166.082 36.3054C164.587 35.6039 163.005 34.8146 161.422 34.1131C160.631 33.7623 159.664 33.4115 158.784 33.1484C157.817 32.8853 156.938 32.6223 155.971 32.4469C154.037 32.0961 152.014 32.0084 149.904 32.0961C147.882 32.1838 145.772 32.6223 143.75 33.1484C141.64 33.6746 139.618 34.4638 137.683 35.3408C135.661 36.2177 133.727 37.2701 131.793 38.4978C130.298 39.4624 128.803 40.5148 127.397 41.6548C125.99 42.7948 124.671 43.9348 123.44 45.2503C120.275 48.4073 117.55 51.652 114.824 54.7213C112.186 57.7906 109.549 60.5968 107.087 63.403C102.164 68.8401 97.7675 73.9264 94.0749 77.8726C90.3822 81.9066 87.1292 84.8882 84.8432 86.8174C82.5573 88.7467 81.2385 89.799 81.3264 90.0621C81.4143 90.2375 83.0848 89.6237 85.6345 87.9575C88.2721 86.2913 91.7889 83.485 95.7454 79.5388C99.7018 75.6802 104.186 70.7694 109.285 65.42C111.835 62.7015 114.472 59.8952 117.198 56.8259C119.923 53.7566 122.649 50.5996 125.726 47.618C126.957 46.3903 128.188 45.338 129.507 44.1979C130.826 43.1456 132.144 42.1809 133.551 41.2163C140.585 36.6562 148.586 34.2884 155.443 35.4285C156.323 35.5162 157.114 35.7793 157.905 35.9546C158.345 36.0423 158.696 36.2177 159.048 36.3054C159.4 36.4808 159.839 36.5685 160.191 36.7439C161.774 37.4454 163.356 38.0593 164.763 38.7609C167.664 40.0763 170.39 41.3917 172.852 42.7071C182.699 47.9688 188.062 51.915 188.414 51.4766Z" fill="#1B1B1B"/>
<path d="M119.484 144.257C119.484 144.257 105.065 157.061 110.78 169.075C116.495 181.177 127.045 182.58 134.782 179.598C142.607 176.617 146.388 166.356 145.069 160.919C143.662 155.482 119.484 144.257 119.484 144.257Z" fill="white"/>
<path d="M119.484 144.257C119.22 144.784 124.144 147.414 131.969 152.062C133.903 153.202 136.013 154.605 138.211 156.096C139.266 156.885 140.409 157.675 141.376 158.552C141.904 158.99 142.343 159.516 142.783 159.955C143.222 160.481 143.486 160.919 143.574 161.27C143.838 162.498 143.838 163.901 143.574 165.392C143.31 166.795 142.871 168.286 142.255 169.689C141.024 172.495 139.002 175.214 136.277 176.88L135.485 177.406L134.606 177.757C134.343 177.932 133.991 178.02 133.727 178.108C133.375 178.195 133.112 178.371 132.76 178.458C131.529 178.809 130.21 179.072 128.891 179.16C127.221 179.248 125.638 179.16 124.056 178.809C122.473 178.458 121.067 177.844 119.748 177.055C117.11 175.477 115.088 173.197 113.505 170.741C112.802 169.513 112.011 168.198 111.659 167.058C111.219 165.83 110.956 164.603 110.956 163.375C110.868 160.919 111.395 158.552 112.187 156.535C113.769 152.413 115.967 149.519 117.374 147.502C118.781 145.573 119.66 144.521 119.484 144.257C119.308 144.082 118.077 144.784 116.231 146.625C115.352 147.502 114.209 148.73 113.154 150.221C112.011 151.711 110.868 153.553 109.901 155.745C108.933 157.938 108.142 160.569 108.142 163.55C108.142 165.041 108.406 166.62 108.846 168.11C109.373 169.689 110.076 171.004 110.868 172.495C112.538 175.301 114.912 178.02 117.989 180.037C119.572 181.001 121.33 181.703 123.177 182.229C125.023 182.668 127.045 182.843 128.979 182.755C130.562 182.668 132.145 182.317 133.639 181.966C133.991 181.878 134.343 181.703 134.782 181.615C135.134 181.528 135.485 181.352 135.925 181.177L137.068 180.651C137.42 180.475 137.771 180.212 138.123 180.037C141.552 177.844 143.838 174.6 145.333 171.267C146.739 167.935 147.531 164.427 146.739 160.832C146.476 159.692 145.772 158.902 145.245 158.289C144.717 157.675 144.102 157.149 143.486 156.622C142.343 155.658 141.112 154.781 139.969 154.079C137.596 152.588 135.398 151.273 133.375 150.221C124.935 145.661 119.66 143.819 119.484 144.257Z" fill="#1B1B1B"/>
<path d="M165.115 37.4455C165.994 37.0947 166.873 36.7439 167.752 36.4809C167.928 36.3932 168.016 36.3932 168.104 36.2178C168.192 36.1301 168.192 35.9547 168.192 35.867C168.28 31.7454 168.544 27.6237 171.181 24.2913C174.786 19.7312 182.259 19.4681 187.183 21.8359C195.008 25.6067 194.744 35.9547 189.381 41.7425C188.502 42.7072 187.447 43.5841 186.831 44.7241C185.776 46.3903 186.216 48.2319 186.479 50.0735" fill="#1B1B1B"/>
<path d="M158.433 42.5318C158.521 42.2687 157.553 41.6548 155.883 40.9533C155.004 40.6025 153.949 40.164 152.718 39.9009C151.487 39.6379 149.992 39.5502 148.498 39.6379C148.146 39.6379 147.882 39.7256 147.618 39.7256C147.355 39.7256 147.003 39.8133 146.739 39.9009C143.75 40.5148 141.376 41.9179 139.969 43.1456C138.475 44.3734 137.859 45.338 138.123 45.6011C138.299 45.7765 139.178 45.0749 140.673 44.198C142.167 43.321 144.365 42.181 147.091 41.5671C147.355 41.4795 147.618 41.4795 147.882 41.3918C148.146 41.3918 148.41 41.3041 148.674 41.3041C150.08 41.1287 151.311 41.2164 152.454 41.3918C153.597 41.5671 154.652 41.8302 155.531 42.0056C157.29 42.5318 158.345 42.7072 158.433 42.5318Z" fill="#1B1B1B"/>
<path d="M172.148 143.731C172.412 143.556 172.148 142.767 172.148 141.451C172.148 140.136 172.5 138.294 173.115 136.189C173.203 135.926 173.203 135.751 173.291 135.576C173.379 135.4 173.379 135.137 173.467 134.962C173.995 132.769 174.434 130.928 174.786 129.525C175.138 128.209 175.313 127.332 175.05 127.245C174.786 127.157 174.258 127.859 173.643 129.174C173.027 130.489 172.412 132.419 171.884 134.611C171.797 134.786 171.797 135.049 171.709 135.225C171.621 135.4 171.621 135.663 171.533 135.839C171.269 136.891 171.005 138.031 170.917 138.996C170.829 139.96 170.829 140.925 171.005 141.714C171.181 143.117 171.885 143.819 172.148 143.731Z" fill="#1B1B1B"/>
<path d="M110.956 177.932C111.747 177.055 110.252 175.389 108.846 173.196L108.67 172.846L108.494 172.495C107.175 170.303 106.735 168.373 105.505 168.373C104.977 168.373 104.537 168.987 104.537 170.127C104.45 171.18 104.801 172.67 105.593 174.161C105.68 174.337 105.768 174.424 105.856 174.6C105.944 174.775 106.032 174.863 106.12 175.038C107.087 176.353 108.142 177.318 109.109 177.844C109.901 178.283 110.604 178.37 110.956 177.932Z" fill="#1B1B1B"/>
</g>
<defs>
<clipPath id="clip0_201_2901">
<rect width="230" height="186" fill="white"/>
</clipPath>
</defs>
</svg>
